<svg xmlns="http://www.w3.org/2000/svg" xmlns:xlink="http://www.w3.org/1999/xlink" width="500" zoomAndPan="magnify" viewBox="0 0 375 374.999991" height="500" preserveAspectRatio="xMidYMid meet" version="1.0"><defs><g/><clipPath id="64bcfa72bb"><path d="M 142 271 L 255 271 L 255 359.441406 L 142 359.441406 Z M 142 271 " clip-rule="nonzero"/></clipPath><clipPath id="912955bbcb"><path d="M 129 271 L 242 271 L 242 359.441406 L 129 359.441406 Z M 129 271 " clip-rule="nonzero"/></clipPath><clipPath id="667abbc99b"><path d="M 112 253 L 260 253 L 260 359.441406 L 112 359.441406 Z M 112 253 " clip-rule="nonzero"/></clipPath><clipPath id="516e28e653"><path d="M 48 15.703125 L 126 15.703125 L 126 92 L 48 92 Z M 48 15.703125 " clip-rule="nonzero"/></clipPath><clipPath id="52c4ecd817"><path d="M 40 15.703125 L 118 15.703125 L 118 92 L 40 92 Z M 40 15.703125 " clip-rule="nonzero"/></clipPath></defs><g clip-path="url(#64bcfa72bb)"><path fill="#010101" d="M 192.808594 274.109375 C 195.453125 270.109375 201.324219 270.109375 203.96875 274.109375 L 253.394531 348.921875 C 256.332031 353.367188 253.144531 359.296875 247.816406 359.296875 L 148.957031 359.296875 C 143.628906 359.296875 140.441406 353.367188 143.378906 348.921875 Z M 192.808594 274.109375 " fill-opacity="1" fill-rule="nonzero"/></g><g clip-path="url(#912955bbcb)"><path fill="#004aad" d="M 180.269531 274.109375 C 182.910156 270.109375 188.785156 270.109375 191.425781 274.109375 L 240.855469 348.921875 C 243.792969 353.367188 240.605469 359.296875 235.277344 359.296875 L 136.417969 359.296875 C 131.089844 359.296875 127.902344 353.367188 130.839844 348.921875 Z M 180.269531 274.109375 " fill-opacity="1" fill-rule="nonzero"/></g><g clip-path="url(#667abbc99b)"><path stroke-linecap="butt" transform="matrix(0.417996, 0, 0, 0.417996, -21.478441, -21.080492)" fill="none" stroke-linejoin="miter" d="M 614.254666 906.003405 L 377.746529 906.003405 C 368.186397 906.003405 362.467139 895.359231 367.737828 887.387781 L 485.991896 708.40865 C 490.729909 701.231542 501.271287 701.231542 506.009299 708.40865 L 624.263368 887.387781 C 629.534057 895.359231 623.814799 906.003405 614.254666 906.003405 Z M 614.254666 906.003405 " stroke="#010101" stroke-width="8" stroke-opacity="1" stroke-miterlimit="4"/></g><path fill="#010101" d="M 0.726562 297.644531 C 0.105469 294.003906 2.550781 290.546875 6.191406 289.925781 L 365.464844 228.457031 C 369.105469 227.832031 372.5625 230.28125 373.183594 233.921875 L 374.3125 240.511719 C 374.933594 244.152344 372.488281 247.609375 368.847656 248.234375 L 9.574219 309.703125 C 5.933594 310.324219 2.476562 307.878906 1.855469 304.238281 Z M 0.726562 297.644531 " fill-opacity="1" fill-rule="nonzero"/><path fill="#ffffff" d="M 0.726562 297.644531 C 0.105469 294.003906 2.550781 290.546875 6.191406 289.925781 L 353.101562 230.570312 C 356.742188 229.949219 360.199219 232.394531 360.824219 236.035156 L 361.949219 242.628906 C 362.574219 246.269531 360.128906 249.726562 356.488281 250.347656 L 9.574219 309.703125 C 5.933594 310.324219 2.476562 307.878906 1.855469 304.238281 Z M 0.726562 297.644531 " fill-opacity="1" fill-rule="nonzero"/><path stroke-linecap="butt" transform="matrix(0.417996, 0, 0, 0.417996, -21.478441, -21.080492)" fill="none" stroke-linejoin="miter" d="M 66.869349 747.985541 L 896.815913 605.985338 C 903.348203 604.87326 909.544066 609.256156 910.665489 615.788445 L 913.36625 631.563131 C 914.478327 638.09542 910.086087 644.300628 903.553797 645.412706 L 73.616578 787.41291 C 67.084288 788.524987 60.87908 784.142092 59.767002 777.600457 L 57.066241 761.835117 C 55.944818 755.302827 60.337059 749.097619 66.869349 747.985541 Z M 66.869349 747.985541 " stroke="#010101" stroke-width="8" stroke-opacity="1" stroke-miterlimit="4"/><path fill="#010101" d="M 30.199219 147.046875 C 29.292969 141.582031 32.992188 136.417969 38.457031 135.511719 L 130.007812 120.363281 C 135.472656 119.457031 140.636719 123.15625 141.542969 128.621094 L 158.191406 229.246094 C 159.097656 234.710938 155.398438 239.875 149.933594 240.78125 L 58.382812 255.929688 C 52.917969 256.832031 47.753906 253.136719 46.847656 247.667969 Z M 30.199219 147.046875 " fill-opacity="1" fill-rule="nonzero"/><path fill="#010101" d="M 229.972656 101.425781 C 228.875 95.996094 232.386719 90.703125 237.816406 89.605469 L 328.765625 71.183594 C 334.195312 70.085938 339.488281 73.59375 340.585938 79.027344 L 360.832031 178.988281 C 361.933594 184.417969 358.421875 189.710938 352.992188 190.8125 L 262.042969 209.230469 C 256.613281 210.328125 251.320312 206.820312 250.21875 201.390625 Z M 229.972656 101.425781 " fill-opacity="1" fill-rule="nonzero"/><path fill="#010101" d="M 21.402344 145.113281 C 20.800781 141.46875 23.265625 138.023438 26.910156 137.421875 L 141.554688 118.453125 C 145.199219 117.847656 148.640625 120.316406 149.246094 123.960938 L 152.382812 142.929688 C 152.984375 146.574219 150.519531 150.015625 146.875 150.617188 L 32.234375 169.589844 C 28.589844 170.191406 25.144531 167.726562 24.542969 164.082031 Z M 21.402344 145.113281 " fill-opacity="1" fill-rule="nonzero"/><path fill="#010101" d="M 221.117188 99.808594 C 220.382812 96.1875 222.722656 92.660156 226.34375 91.925781 L 340.234375 68.863281 C 343.855469 68.128906 347.382812 70.46875 348.117188 74.089844 L 351.933594 92.933594 C 352.667969 96.554688 350.328125 100.082031 346.707031 100.816406 L 232.816406 123.882812 C 229.195312 124.617188 225.667969 122.273438 224.933594 118.65625 Z M 221.117188 99.808594 " fill-opacity="1" fill-rule="nonzero"/><path fill="#f7ca6d" d="M 13.703125 149.777344 C 12.796875 144.3125 16.496094 139.144531 21.960938 138.242188 L 117.636719 122.410156 C 123.101562 121.507812 128.265625 125.203125 129.171875 130.671875 L 145.820312 231.292969 C 146.726562 236.757812 143.027344 241.925781 137.5625 242.828125 L 41.886719 258.660156 C 36.421875 259.5625 31.257812 255.867188 30.351562 250.398438 Z M 13.703125 149.777344 " fill-opacity="1" fill-rule="nonzero"/><path fill="#f7ca6d" d="M 213.585938 104.746094 C 212.488281 99.316406 216 94.023438 221.429688 92.921875 L 316.472656 73.675781 C 321.902344 72.574219 327.199219 76.085938 328.296875 81.515625 L 348.542969 181.476562 C 349.640625 186.90625 346.132812 192.199219 340.703125 193.300781 L 245.65625 212.550781 C 240.226562 213.648438 234.933594 210.140625 233.832031 204.707031 Z M 213.585938 104.746094 " fill-opacity="1" fill-rule="nonzero"/><path fill="#010101" d="M 118.183594 125.710938 L 22.507812 141.542969 C 18.863281 142.144531 16.398438 145.585938 17 149.230469 L 33.652344 249.855469 C 34.253906 253.496094 37.695312 255.964844 41.339844 255.359375 L 137.015625 239.53125 C 140.660156 238.925781 143.125 235.484375 142.523438 231.839844 L 125.871094 131.214844 C 125.269531 127.574219 121.824219 125.105469 118.183594 125.710938 Z M 21.960938 138.242188 C 16.496094 139.144531 12.796875 144.3125 13.703125 149.777344 L 30.351562 250.398438 C 31.257812 255.867188 36.421875 259.5625 41.886719 258.660156 L 137.5625 242.828125 C 143.027344 241.925781 146.726562 236.757812 145.820312 231.292969 L 129.171875 130.671875 C 128.265625 125.203125 123.101562 121.507812 117.636719 122.410156 Z M 21.960938 138.242188 " fill-opacity="1" fill-rule="evenodd"/><path fill="#010101" d="M 317.136719 76.953125 L 222.09375 96.199219 C 218.472656 96.933594 216.132812 100.464844 216.863281 104.082031 L 237.109375 204.042969 C 237.84375 207.664062 241.371094 210.003906 244.992188 209.273438 L 340.039062 190.023438 C 343.65625 189.289062 345.996094 185.761719 345.265625 182.140625 L 325.019531 82.179688 C 324.289062 78.558594 320.757812 76.21875 317.136719 76.953125 Z M 221.429688 92.921875 C 216 94.023438 212.488281 99.316406 213.585938 104.746094 L 233.832031 204.707031 C 234.933594 210.140625 240.226562 213.648438 245.65625 212.550781 L 340.703125 193.300781 C 346.132812 192.199219 349.640625 186.90625 348.542969 181.476562 L 328.296875 81.515625 C 327.199219 76.085938 321.902344 72.574219 316.472656 73.675781 Z M 221.429688 92.921875 " fill-opacity="1" fill-rule="evenodd"/><path fill="#faac01" d="M 4.910156 147.84375 C 4.304688 144.199219 6.769531 140.757812 10.414062 140.152344 L 129.183594 120.5 C 132.828125 119.898438 136.269531 122.363281 136.871094 126.007812 L 140.011719 144.976562 C 140.613281 148.621094 138.148438 152.0625 134.503906 152.667969 L 15.738281 172.320312 C 12.09375 172.921875 8.648438 170.457031 8.046875 166.8125 Z M 4.910156 147.84375 " fill-opacity="1" fill-rule="nonzero"/><path fill="#faac01" d="M 204.730469 103.128906 C 203.996094 99.507812 206.339844 95.980469 209.957031 95.246094 L 327.945312 71.351562 C 331.566406 70.617188 335.09375 72.957031 335.828125 76.578125 L 339.644531 95.421875 C 340.378906 99.042969 338.039062 102.574219 334.417969 103.304688 L 216.429688 127.203125 C 212.808594 127.933594 209.28125 125.59375 208.546875 121.972656 Z M 204.730469 103.128906 " fill-opacity="1" fill-rule="nonzero"/><path fill="#f7ca6d" d="M 10.414062 140.152344 C 6.769531 140.757812 4.304688 144.199219 4.910156 147.84375 L 6 154.441406 C 5.398438 150.796875 7.863281 147.355469 11.507812 146.75 L 130.273438 127.097656 C 133.917969 126.496094 137.363281 128.960938 137.964844 132.605469 L 136.871094 126.007812 C 136.269531 122.363281 132.828125 119.898438 129.183594 120.5 Z M 10.414062 140.152344 " fill-opacity="1" fill-rule="nonzero"/><path fill="#f7ca6d" d="M 209.957031 95.246094 C 206.335938 95.980469 203.996094 99.507812 204.730469 103.128906 L 206.058594 109.683594 C 205.324219 106.0625 207.664062 102.535156 211.285156 101.800781 L 329.273438 77.90625 C 332.894531 77.171875 336.421875 79.511719 337.15625 83.132812 L 335.828125 76.578125 C 335.09375 72.957031 331.566406 70.617188 327.945312 71.351562 Z M 209.957031 95.246094 " fill-opacity="1" fill-rule="nonzero"/><path fill="#010101" d="M 129.730469 123.800781 L 10.960938 143.453125 C 9.140625 143.753906 7.90625 145.476562 8.207031 147.296875 L 11.347656 166.265625 C 11.648438 168.089844 13.371094 169.320312 15.191406 169.019531 L 133.960938 149.367188 C 135.78125 149.066406 137.015625 147.34375 136.710938 145.523438 L 133.574219 126.554688 C 133.273438 124.730469 131.550781 123.5 129.730469 123.800781 Z M 10.414062 140.152344 C 6.769531 140.757812 4.304688 144.199219 4.910156 147.84375 L 8.046875 166.8125 C 8.648438 170.457031 12.09375 172.921875 15.738281 172.320312 L 134.503906 152.667969 C 138.148438 152.0625 140.613281 148.621094 140.011719 144.976562 L 136.871094 126.007812 C 136.269531 122.363281 132.828125 119.898438 129.183594 120.5 Z M 10.414062 140.152344 " fill-opacity="1" fill-rule="evenodd"/><g clip-path="url(#516e28e653)"><path fill="#010101" d="M 125.65625 53.742188 C 125.65625 54.988281 125.59375 56.230469 125.472656 57.46875 C 125.347656 58.707031 125.164062 59.941406 124.917969 61.160156 C 124.671875 62.382812 124.367188 63.589844 124 64.78125 C 123.632812 65.972656 123.210938 67.144531 122.730469 68.296875 C 122.246094 69.449219 121.707031 70.574219 121.117188 71.671875 C 120.523438 72.769531 119.875 73.835938 119.175781 74.875 C 118.476562 75.910156 117.726562 76.910156 116.925781 77.871094 C 116.128906 78.835938 115.285156 79.757812 114.394531 80.636719 C 113.503906 81.519531 112.570312 82.355469 111.597656 83.144531 C 110.621094 83.933594 109.613281 84.675781 108.566406 85.367188 C 107.519531 86.058594 106.4375 86.699219 105.328125 87.285156 C 104.21875 87.875 103.082031 88.40625 101.917969 88.882812 C 100.753906 89.359375 99.570312 89.777344 98.363281 90.140625 C 97.160156 90.503906 95.9375 90.804688 94.703125 91.046875 C 93.46875 91.289062 92.222656 91.472656 90.96875 91.59375 C 89.714844 91.71875 88.460938 91.777344 87.199219 91.777344 C 85.941406 91.777344 84.683594 91.71875 83.429688 91.59375 C 82.175781 91.472656 80.933594 91.289062 79.699219 91.046875 C 78.460938 90.804688 77.242188 90.503906 76.039062 90.140625 C 74.832031 89.777344 73.648438 89.359375 72.484375 88.882812 C 71.320312 88.40625 70.183594 87.875 69.074219 87.285156 C 67.960938 86.699219 66.882812 86.058594 65.835938 85.367188 C 64.789062 84.675781 63.777344 83.933594 62.804688 83.144531 C 61.832031 82.355469 60.898438 81.519531 60.007812 80.636719 C 59.117188 79.757812 58.273438 78.835938 57.472656 77.871094 C 56.675781 76.910156 55.925781 75.910156 55.226562 74.875 C 54.527344 73.835938 53.878906 72.769531 53.285156 71.671875 C 52.691406 70.574219 52.152344 69.449219 51.671875 68.296875 C 51.191406 67.144531 50.765625 65.972656 50.402344 64.78125 C 50.035156 63.589844 49.730469 62.382812 49.484375 61.160156 C 49.238281 59.941406 49.054688 58.707031 48.929688 57.46875 C 48.804688 56.230469 48.746094 54.988281 48.746094 53.742188 C 48.746094 52.496094 48.804688 51.253906 48.929688 50.011719 C 49.054688 48.773438 49.238281 47.542969 49.484375 46.320312 C 49.730469 45.097656 50.035156 43.890625 50.402344 42.699219 C 50.765625 41.507812 51.191406 40.335938 51.671875 39.183594 C 52.152344 38.035156 52.691406 36.910156 53.285156 35.808594 C 53.878906 34.710938 54.527344 33.644531 55.226562 32.609375 C 55.925781 31.574219 56.675781 30.574219 57.472656 29.609375 C 58.273438 28.648438 59.117188 27.726562 60.007812 26.84375 C 60.898438 25.964844 61.832031 25.128906 62.804688 24.335938 C 63.777344 23.546875 64.789062 22.804688 65.835938 22.113281 C 66.882812 21.421875 67.960938 20.78125 69.074219 20.195312 C 70.183594 19.605469 71.320312 19.074219 72.484375 18.597656 C 73.648438 18.121094 74.832031 17.703125 76.039062 17.339844 C 77.242188 16.980469 78.460938 16.675781 79.699219 16.433594 C 80.933594 16.191406 82.175781 16.007812 83.429688 15.886719 C 84.683594 15.765625 85.941406 15.703125 87.199219 15.703125 C 88.460938 15.703125 89.714844 15.765625 90.96875 15.886719 C 92.222656 16.007812 93.46875 16.191406 94.703125 16.433594 C 95.9375 16.675781 97.160156 16.980469 98.363281 17.339844 C 99.570312 17.703125 100.753906 18.121094 101.917969 18.597656 C 103.082031 19.074219 104.21875 19.605469 105.328125 20.195312 C 106.4375 20.78125 107.519531 21.421875 108.566406 22.113281 C 109.613281 22.804688 110.621094 23.546875 111.597656 24.335938 C 112.570312 25.128906 113.503906 25.964844 114.394531 26.84375 C 115.285156 27.726562 116.128906 28.648438 116.925781 29.609375 C 117.726562 30.574219 118.476562 31.574219 119.175781 32.609375 C 119.875 33.644531 120.523438 34.710938 121.117188 35.808594 C 121.707031 36.910156 122.246094 38.035156 122.730469 39.183594 C 123.210938 40.335938 123.632812 41.507812 124 42.699219 C 124.367188 43.890625 124.671875 45.097656 124.917969 46.320312 C 125.164062 47.542969 125.347656 48.773438 125.472656 50.011719 C 125.59375 51.253906 125.65625 52.496094 125.65625 53.742188 Z M 125.65625 53.742188 " fill-opacity="1" fill-rule="nonzero"/></g><path fill="#010101" d="M 328.609375 74.628906 L 210.621094 98.523438 C 208.8125 98.890625 207.640625 100.65625 208.007812 102.464844 L 211.824219 121.308594 C 212.191406 123.121094 213.957031 124.289062 215.765625 123.925781 L 333.753906 100.027344 C 335.5625 99.660156 336.734375 97.898438 336.367188 96.085938 L 332.550781 77.242188 C 332.183594 75.433594 330.417969 74.261719 328.609375 74.628906 Z M 209.957031 95.246094 C 206.335938 95.980469 203.996094 99.507812 204.730469 103.128906 L 208.546875 121.972656 C 209.28125 125.59375 212.808594 127.933594 216.429688 127.199219 L 334.417969 103.304688 C 338.035156 102.574219 340.378906 99.042969 339.644531 95.421875 L 335.828125 76.578125 C 335.09375 72.957031 331.566406 70.617188 327.945312 71.351562 Z M 209.957031 95.246094 " fill-opacity="1" fill-rule="evenodd"/><g clip-path="url(#52c4ecd817)"><path fill="#004aad" d="M 117.296875 53.742188 C 117.296875 54.988281 117.234375 56.230469 117.109375 57.46875 C 116.988281 58.707031 116.804688 59.941406 116.558594 61.160156 C 116.3125 62.382812 116.003906 63.589844 115.640625 64.78125 C 115.273438 65.972656 114.851562 67.144531 114.367188 68.296875 C 113.886719 69.449219 113.347656 70.574219 112.753906 71.671875 C 112.160156 72.769531 111.515625 73.835938 110.816406 74.875 C 110.117188 75.910156 109.367188 76.910156 108.566406 77.871094 C 107.769531 78.835938 106.921875 79.757812 106.03125 80.636719 C 105.140625 81.519531 104.210938 82.355469 103.238281 83.144531 C 102.261719 83.933594 101.253906 84.675781 100.207031 85.367188 C 99.15625 86.058594 98.078125 86.699219 96.96875 87.285156 C 95.859375 87.875 94.71875 88.40625 93.558594 88.882812 C 92.394531 89.359375 91.207031 89.777344 90.003906 90.140625 C 88.796875 90.503906 87.578125 90.804688 86.34375 91.046875 C 85.109375 91.289062 83.863281 91.472656 82.609375 91.59375 C 81.355469 91.71875 80.101562 91.777344 78.839844 91.777344 C 77.582031 91.777344 76.324219 91.71875 75.070312 91.59375 C 73.816406 91.472656 72.574219 91.289062 71.339844 91.046875 C 70.101562 90.804688 68.882812 90.503906 67.675781 90.140625 C 66.472656 89.777344 65.289062 89.359375 64.125 88.882812 C 62.960938 88.40625 61.824219 87.875 60.710938 87.285156 C 59.601562 86.699219 58.523438 86.058594 57.476562 85.367188 C 56.429688 84.675781 55.417969 83.933594 54.445312 83.144531 C 53.472656 82.355469 52.539062 81.519531 51.648438 80.636719 C 50.757812 79.757812 49.914062 78.835938 49.113281 77.871094 C 48.316406 76.910156 47.566406 75.910156 46.867188 74.875 C 46.167969 73.835938 45.519531 72.769531 44.925781 71.671875 C 44.332031 70.574219 43.792969 69.449219 43.3125 68.296875 C 42.832031 67.144531 42.40625 65.972656 42.039062 64.78125 C 41.675781 63.589844 41.371094 62.382812 41.125 61.160156 C 40.878906 59.941406 40.695312 58.707031 40.570312 57.46875 C 40.445312 56.230469 40.386719 54.988281 40.386719 53.742188 C 40.386719 52.496094 40.445312 51.253906 40.570312 50.011719 C 40.695312 48.773438 40.878906 47.542969 41.125 46.320312 C 41.371094 45.097656 41.675781 43.890625 42.039062 42.699219 C 42.40625 41.507812 42.832031 40.335938 43.3125 39.183594 C 43.792969 38.035156 44.332031 36.910156 44.925781 35.808594 C 45.519531 34.710938 46.167969 33.644531 46.867188 32.609375 C 47.566406 31.574219 48.316406 30.574219 49.113281 29.609375 C 49.914062 28.648438 50.757812 27.726562 51.648438 26.84375 C 52.539062 25.964844 53.472656 25.128906 54.445312 24.335938 C 55.417969 23.546875 56.429688 22.804688 57.476562 22.113281 C 58.523438 21.421875 59.601562 20.78125 60.710938 20.195312 C 61.824219 19.605469 62.960938 19.074219 64.125 18.597656 C 65.289062 18.121094 66.472656 17.703125 67.675781 17.339844 C 68.882812 16.980469 70.101562 16.675781 71.339844 16.433594 C 72.574219 16.191406 73.816406 16.007812 75.070312 15.886719 C 76.324219 15.765625 77.582031 15.703125 78.839844 15.703125 C 80.101562 15.703125 81.355469 15.765625 82.609375 15.886719 C 83.863281 16.007812 85.109375 16.191406 86.34375 16.433594 C 87.578125 16.675781 88.796875 16.980469 90.003906 17.339844 C 91.207031 17.703125 92.394531 18.121094 93.558594 18.597656 C 94.71875 19.074219 95.859375 19.605469 96.96875 20.195312 C 98.078125 20.78125 99.15625 21.421875 100.207031 22.113281 C 101.253906 22.804688 102.261719 23.546875 103.238281 24.335938 C 104.210938 25.128906 105.140625 25.964844 106.03125 26.84375 C 106.921875 27.726562 107.769531 28.648438 108.566406 29.609375 C 109.367188 30.574219 110.117188 31.574219 110.816406 32.609375 C 111.515625 33.644531 112.160156 34.710938 112.753906 35.808594 C 113.347656 36.910156 113.886719 38.035156 114.367188 39.183594 C 114.851562 40.335938 115.273438 41.507812 115.640625 42.699219 C 116.003906 43.890625 116.3125 45.097656 116.558594 46.320312 C 116.804688 47.542969 116.988281 48.773438 117.109375 50.011719 C 117.234375 51.253906 117.296875 52.496094 117.296875 53.742188 Z M 117.296875 53.742188 " fill-opacity="1" fill-rule="nonzero"/><path fill="#010101" d="M 78.839844 88.433594 C 98.265625 88.433594 113.953125 72.867188 113.953125 53.742188 C 113.953125 34.613281 98.265625 19.046875 78.839844 19.046875 C 59.414062 19.046875 43.730469 34.613281 43.730469 53.742188 C 43.730469 72.867188 59.414062 88.433594 78.839844 88.433594 Z M 78.839844 91.777344 C 100.078125 91.777344 117.296875 74.75 117.296875 53.742188 C 117.296875 32.734375 100.078125 15.703125 78.839844 15.703125 C 57.601562 15.703125 40.386719 32.734375 40.386719 53.742188 C 40.386719 74.75 57.601562 91.777344 78.839844 91.777344 Z M 78.839844 91.777344 " fill-opacity="1" fill-rule="evenodd"/></g><path fill="#ffffff" d="M 66.394531 50.144531 C 64.34375 48.003906 60.925781 48.003906 58.875 50.144531 C 56.949219 52.15625 56.949219 55.328125 58.875 57.339844 L 68.609375 67.503906 C 71.242188 70.253906 75.636719 70.253906 78.269531 67.503906 L 98.804688 46.050781 C 100.730469 44.039062 100.730469 40.867188 98.804688 38.855469 C 96.753906 36.71875 93.335938 36.71875 91.289062 38.855469 L 73.4375 57.503906 Z M 66.394531 50.144531 " fill-opacity="1" fill-rule="nonzero"/><path fill="#010101" d="M 355.320312 30.808594 C 356.214844 31.046875 356.742188 31.964844 356.503906 32.855469 L 349.796875 57.890625 C 349.558594 58.78125 348.640625 59.308594 347.75 59.070312 C 346.855469 58.832031 346.328125 57.914062 346.566406 57.023438 L 353.273438 31.992188 C 353.511719 31.097656 354.429688 30.570312 355.320312 30.808594 Z M 355.320312 30.808594 " fill-opacity="1" fill-rule="nonzero"/><path fill="#010101" d="M 373.777344 41.945312 C 374.507812 42.507812 374.644531 43.558594 374.078125 44.289062 L 360.8125 61.503906 C 360.246094 62.238281 359.199219 62.371094 358.464844 61.808594 C 357.734375 61.246094 357.597656 60.195312 358.164062 59.464844 L 371.429688 42.246094 C 371.996094 41.515625 373.042969 41.378906 373.777344 41.945312 Z M 373.777344 41.945312 " fill-opacity="1" fill-rule="nonzero"/><path fill="#010101" d="M 332.339844 33.105469 C 332.214844 32.1875 332.859375 31.347656 333.773438 31.226562 C 334.6875 31.101562 335.53125 31.746094 335.652344 32.660156 L 338.535156 54.203125 C 338.65625 55.121094 338.015625 55.960938 337.097656 56.082031 C 336.183594 56.207031 335.34375 55.5625 335.21875 54.648438 Z M 332.339844 33.105469 " fill-opacity="1" fill-rule="nonzero"/><g fill="#000000" fill-opacity="1"><g transform="translate(44.413371, 196.44214)"><g><path d="M 7.265625 0.234375 C 6.253906 0.234375 5.265625 0.117188 4.296875 -0.109375 C 3.335938 -0.335938 2.503906 -0.679688 1.796875 -1.140625 C 1.441406 -1.367188 1.226562 -1.644531 1.15625 -1.96875 C 1.082031 -2.300781 1.109375 -2.613281 1.234375 -2.90625 C 1.367188 -3.207031 1.570312 -3.414062 1.84375 -3.53125 C 2.125 -3.644531 2.445312 -3.585938 2.8125 -3.359375 C 3.476562 -2.960938 4.179688 -2.671875 4.921875 -2.484375 C 5.671875 -2.304688 6.453125 -2.21875 7.265625 -2.21875 C 8.460938 -2.21875 9.332031 -2.421875 9.875 -2.828125 C 10.425781 -3.234375 10.703125 -3.753906 10.703125 -4.390625 C 10.703125 -4.921875 10.507812 -5.335938 10.125 -5.640625 C 9.738281 -5.941406 9.078125 -6.191406 8.140625 -6.390625 L 5.640625 -6.90625 C 2.785156 -7.507812 1.359375 -8.972656 1.359375 -11.296875 C 1.359375 -12.296875 1.625 -13.164062 2.15625 -13.90625 C 2.6875 -14.644531 3.421875 -15.21875 4.359375 -15.625 C 5.296875 -16.039062 6.378906 -16.25 7.609375 -16.25 C 8.515625 -16.25 9.375 -16.132812 10.1875 -15.90625 C 11.007812 -15.675781 11.75 -15.34375 12.40625 -14.90625 C 12.707031 -14.6875 12.890625 -14.421875 12.953125 -14.109375 C 13.015625 -13.804688 12.972656 -13.519531 12.828125 -13.25 C 12.691406 -12.988281 12.476562 -12.804688 12.1875 -12.703125 C 11.894531 -12.609375 11.550781 -12.675781 11.15625 -12.90625 C 10.59375 -13.21875 10.023438 -13.441406 9.453125 -13.578125 C 8.878906 -13.722656 8.257812 -13.796875 7.59375 -13.796875 C 6.539062 -13.796875 5.71875 -13.570312 5.125 -13.125 C 4.539062 -12.6875 4.25 -12.113281 4.25 -11.40625 C 4.25 -10.863281 4.429688 -10.425781 4.796875 -10.09375 C 5.160156 -9.769531 5.78125 -9.519531 6.65625 -9.34375 L 9.140625 -8.8125 C 10.628906 -8.5 11.738281 -8 12.46875 -7.3125 C 13.207031 -6.632812 13.578125 -5.726562 13.578125 -4.59375 C 13.578125 -3.632812 13.320312 -2.789062 12.8125 -2.0625 C 12.300781 -1.34375 11.570312 -0.78125 10.625 -0.375 C 9.675781 0.03125 8.554688 0.234375 7.265625 0.234375 Z M 7.265625 0.234375 "/></g></g></g><g fill="#000000" fill-opacity="1"><g transform="translate(62.632549, 196.44214)"><g><path d="M 3.109375 0.1875 C 2.203125 0.1875 1.75 -0.285156 1.75 -1.234375 L 1.75 -14.75 C 1.75 -15.21875 1.863281 -15.578125 2.09375 -15.828125 C 2.332031 -16.078125 2.640625 -16.203125 3.015625 -16.203125 C 3.367188 -16.203125 3.628906 -16.132812 3.796875 -16 C 3.972656 -15.875 4.1875 -15.660156 4.4375 -15.359375 L 12.546875 -4.84375 L 12.546875 -14.8125 C 12.546875 -15.738281 13 -16.203125 13.90625 -16.203125 C 14.800781 -16.203125 15.25 -15.738281 15.25 -14.8125 L 15.25 -1.1875 C 15.25 -0.757812 15.140625 -0.421875 14.921875 -0.171875 C 14.710938 0.0664062 14.425781 0.1875 14.0625 0.1875 C 13.71875 0.1875 13.441406 0.117188 13.234375 -0.015625 C 13.023438 -0.160156 12.800781 -0.382812 12.5625 -0.6875 L 4.453125 -11.21875 L 4.453125 -1.234375 C 4.453125 -0.285156 4.003906 0.1875 3.109375 0.1875 Z M 3.109375 0.1875 "/></g></g></g><g fill="#000000" fill-opacity="1"><g transform="translate(83.509403, 196.44214)"><g><path d="M 3.203125 0.1875 C 2.234375 0.1875 1.75 -0.3125 1.75 -1.3125 L 1.75 -14.71875 C 1.75 -15.707031 2.234375 -16.203125 3.203125 -16.203125 C 4.171875 -16.203125 4.65625 -15.707031 4.65625 -14.71875 L 4.65625 -8.921875 L 4.703125 -8.921875 L 11.21875 -15.46875 C 11.46875 -15.707031 11.710938 -15.890625 11.953125 -16.015625 C 12.191406 -16.140625 12.460938 -16.203125 12.765625 -16.203125 C 13.203125 -16.203125 13.515625 -16.085938 13.703125 -15.859375 C 13.898438 -15.628906 13.976562 -15.363281 13.9375 -15.0625 C 13.894531 -14.757812 13.75 -14.476562 13.5 -14.21875 L 7.515625 -8.3125 L 13.8125 -1.9375 C 14.132812 -1.632812 14.300781 -1.316406 14.3125 -0.984375 C 14.320312 -0.648438 14.21875 -0.367188 14 -0.140625 C 13.78125 0.078125 13.460938 0.1875 13.046875 0.1875 C 12.679688 0.1875 12.390625 0.113281 12.171875 -0.03125 C 11.953125 -0.1875 11.695312 -0.410156 11.40625 -0.703125 L 4.703125 -7.40625 L 4.65625 -7.40625 L 4.65625 -1.3125 C 4.65625 -0.3125 4.171875 0.1875 3.203125 0.1875 Z M 3.203125 0.1875 "/></g></g></g><g fill="#000000" fill-opacity="1"><g transform="translate(102.500889, 196.44214)"><g><path d="M 3.203125 0.1875 C 2.234375 0.1875 1.75 -0.3125 1.75 -1.3125 L 1.75 -14.546875 C 1.75 -15.523438 2.238281 -16.015625 3.21875 -16.015625 L 8.703125 -16.015625 C 10.460938 -16.015625 11.816406 -15.59375 12.765625 -14.75 C 13.722656 -13.914062 14.203125 -12.738281 14.203125 -11.21875 C 14.203125 -10.019531 13.890625 -9.03125 13.265625 -8.25 C 12.648438 -7.476562 11.757812 -6.953125 10.59375 -6.671875 C 11.363281 -6.429688 12 -5.851562 12.5 -4.9375 L 14.203125 -1.765625 C 14.453125 -1.285156 14.5 -0.835938 14.34375 -0.421875 C 14.1875 -0.015625 13.796875 0.1875 13.171875 0.1875 C 12.765625 0.1875 12.429688 0.0976562 12.171875 -0.078125 C 11.921875 -0.253906 11.695312 -0.523438 11.5 -0.890625 L 9.203125 -5.109375 C 8.929688 -5.628906 8.609375 -5.972656 8.234375 -6.140625 C 7.859375 -6.316406 7.382812 -6.40625 6.8125 -6.40625 L 4.65625 -6.40625 L 4.65625 -1.3125 C 4.65625 -0.3125 4.171875 0.1875 3.203125 0.1875 Z M 4.65625 -8.5625 L 8.203125 -8.5625 C 10.316406 -8.5625 11.375 -9.425781 11.375 -11.15625 C 11.375 -12.863281 10.316406 -13.71875 8.203125 -13.71875 L 4.65625 -13.71875 Z M 4.65625 -8.5625 "/></g></g></g><g fill="#000000" fill-opacity="1"><g transform="translate(42.336236, 225.415517)"><g><path d="M 3.296875 0 C 2.265625 0 1.75 -0.515625 1.75 -1.546875 L 1.75 -14.46875 C 1.75 -15.5 2.265625 -16.015625 3.296875 -16.015625 L 7.703125 -16.015625 C 10.378906 -16.015625 12.445312 -15.320312 13.90625 -13.9375 C 15.375 -12.5625 16.109375 -10.585938 16.109375 -8.015625 C 16.109375 -5.460938 15.375 -3.488281 13.90625 -2.09375 C 12.445312 -0.695312 10.378906 0 7.703125 0 Z M 4.65625 -2.40625 L 7.515625 -2.40625 C 11.210938 -2.40625 13.0625 -4.273438 13.0625 -8.015625 C 13.0625 -11.742188 11.210938 -13.609375 7.515625 -13.609375 L 4.65625 -13.609375 Z M 4.65625 -2.40625 "/></g></g></g><g fill="#000000" fill-opacity="1"><g transform="translate(63.531102, 225.415517)"><g><path d="M 8.40625 0.234375 C 6.207031 0.234375 4.53125 -0.335938 3.375 -1.484375 C 2.21875 -2.628906 1.640625 -4.320312 1.640625 -6.5625 L 1.640625 -14.71875 C 1.640625 -15.707031 2.125 -16.203125 3.09375 -16.203125 C 4.0625 -16.203125 4.546875 -15.707031 4.546875 -14.71875 L 4.546875 -6.59375 C 4.546875 -5.15625 4.875 -4.070312 5.53125 -3.34375 C 6.1875 -2.625 7.144531 -2.265625 8.40625 -2.265625 C 10.96875 -2.265625 12.25 -3.707031 12.25 -6.59375 L 12.25 -14.71875 C 12.25 -15.707031 12.734375 -16.203125 13.703125 -16.203125 C 14.648438 -16.203125 15.125 -15.707031 15.125 -14.71875 L 15.125 -6.5625 C 15.125 -4.320312 14.554688 -2.628906 13.421875 -1.484375 C 12.285156 -0.335938 10.613281 0.234375 8.40625 0.234375 Z M 8.40625 0.234375 "/></g></g></g><g fill="#000000" fill-opacity="1"><g transform="translate(84.180808, 225.415517)"><g><path d="M 3.109375 0.1875 C 2.203125 0.1875 1.75 -0.285156 1.75 -1.234375 L 1.75 -14.75 C 1.75 -15.21875 1.863281 -15.578125 2.09375 -15.828125 C 2.332031 -16.078125 2.640625 -16.203125 3.015625 -16.203125 C 3.367188 -16.203125 3.628906 -16.132812 3.796875 -16 C 3.972656 -15.875 4.1875 -15.660156 4.4375 -15.359375 L 12.546875 -4.84375 L 12.546875 -14.8125 C 12.546875 -15.738281 13 -16.203125 13.90625 -16.203125 C 14.800781 -16.203125 15.25 -15.738281 15.25 -14.8125 L 15.25 -1.1875 C 15.25 -0.757812 15.140625 -0.421875 14.921875 -0.171875 C 14.710938 0.0664062 14.425781 0.1875 14.0625 0.1875 C 13.71875 0.1875 13.441406 0.117188 13.234375 -0.015625 C 13.023438 -0.160156 12.800781 -0.382812 12.5625 -0.6875 L 4.453125 -11.21875 L 4.453125 -1.234375 C 4.453125 -0.285156 4.003906 0.1875 3.109375 0.1875 Z M 3.109375 0.1875 "/></g></g></g><g fill="#000000" fill-opacity="1"><g transform="translate(105.057661, 225.415517)"><g><path d="M 3.203125 0.1875 C 2.234375 0.1875 1.75 -0.3125 1.75 -1.3125 L 1.75 -14.71875 C 1.75 -15.707031 2.234375 -16.203125 3.203125 -16.203125 C 4.171875 -16.203125 4.65625 -15.707031 4.65625 -14.71875 L 4.65625 -8.921875 L 4.703125 -8.921875 L 11.21875 -15.46875 C 11.46875 -15.707031 11.710938 -15.890625 11.953125 -16.015625 C 12.191406 -16.140625 12.460938 -16.203125 12.765625 -16.203125 C 13.203125 -16.203125 13.515625 -16.085938 13.703125 -15.859375 C 13.898438 -15.628906 13.976562 -15.363281 13.9375 -15.0625 C 13.894531 -14.757812 13.75 -14.476562 13.5 -14.21875 L 7.515625 -8.3125 L 13.8125 -1.9375 C 14.132812 -1.632812 14.300781 -1.316406 14.3125 -0.984375 C 14.320312 -0.648438 14.21875 -0.367188 14 -0.140625 C 13.78125 0.078125 13.460938 0.1875 13.046875 0.1875 C 12.679688 0.1875 12.390625 0.113281 12.171875 -0.03125 C 11.953125 -0.1875 11.695312 -0.410156 11.40625 -0.703125 L 4.703125 -7.40625 L 4.65625 -7.40625 L 4.65625 -1.3125 C 4.65625 -0.3125 4.171875 0.1875 3.203125 0.1875 Z M 3.203125 0.1875 "/></g></g></g><g fill="#ffffff" fill-opacity="1"><g transform="translate(239.204938, 161.979868)"><g><path d="M 4.09375 0 C 2.8125 0 2.171875 -0.640625 2.171875 -1.921875 L 2.171875 -18 C 2.171875 -19.28125 2.8125 -19.921875 4.09375 -19.921875 L 14.1875 -19.921875 C 15.164062 -19.921875 15.65625 -19.453125 15.65625 -18.515625 C 15.65625 -17.535156 15.164062 -17.046875 14.1875 -17.046875 L 5.65625 -17.046875 L 5.65625 -11.5625 L 13.5625 -11.5625 C 14.539062 -11.5625 15.03125 -11.082031 15.03125 -10.125 C 15.03125 -9.15625 14.539062 -8.671875 13.5625 -8.671875 L 5.65625 -8.671875 L 5.65625 -2.890625 L 14.1875 -2.890625 C 15.164062 -2.890625 15.65625 -2.40625 15.65625 -1.4375 C 15.65625 -0.476562 15.164062 0 14.1875 0 Z M 4.09375 0 "/></g></g></g><g fill="#ffffff" fill-opacity="1"><g transform="translate(260.909081, 161.979868)"><g><path d="M 4.09375 0 C 2.8125 0 2.171875 -0.640625 2.171875 -1.921875 L 2.171875 -18 C 2.171875 -19.28125 2.8125 -19.921875 4.09375 -19.921875 L 10.875 -19.921875 C 12.96875 -19.921875 14.585938 -19.460938 15.734375 -18.546875 C 16.890625 -17.640625 17.46875 -16.375 17.46875 -14.75 C 17.46875 -13.675781 17.191406 -12.753906 16.640625 -11.984375 C 16.097656 -11.210938 15.347656 -10.644531 14.390625 -10.28125 C 15.515625 -9.96875 16.394531 -9.410156 17.03125 -8.609375 C 17.664062 -7.804688 17.984375 -6.789062 17.984375 -5.5625 C 17.984375 -3.789062 17.382812 -2.421875 16.1875 -1.453125 C 14.988281 -0.484375 13.320312 0 11.1875 0 Z M 5.65625 -11.46875 L 10.265625 -11.46875 C 12.734375 -11.46875 13.96875 -12.421875 13.96875 -14.328125 C 13.96875 -16.234375 12.734375 -17.1875 10.265625 -17.1875 L 5.65625 -17.1875 Z M 5.65625 -2.734375 L 10.734375 -2.734375 C 13.222656 -2.734375 14.46875 -3.734375 14.46875 -5.734375 C 14.46875 -7.734375 13.222656 -8.734375 10.734375 -8.734375 L 5.65625 -8.734375 Z M 5.65625 -2.734375 "/></g></g></g><g fill="#ffffff" fill-opacity="1"><g transform="translate(285.184707, 161.979868)"><g><path d="M 2.375 0.21875 C 1.71875 0.21875 1.242188 -0.00390625 0.953125 -0.453125 C 0.671875 -0.898438 0.679688 -1.445312 0.984375 -2.09375 L 8.453125 -18.625 C 8.691406 -19.175781 8.984375 -19.566406 9.328125 -19.796875 C 9.679688 -20.035156 10.085938 -20.15625 10.546875 -20.15625 C 10.972656 -20.15625 11.359375 -20.035156 11.703125 -19.796875 C 12.054688 -19.566406 12.359375 -19.175781 12.609375 -18.625 L 20.09375 -2.09375 C 20.394531 -1.4375 20.410156 -0.882812 20.140625 -0.4375 C 19.878906 0 19.429688 0.21875 18.796875 0.21875 C 18.265625 0.21875 17.851562 0.09375 17.5625 -0.15625 C 17.269531 -0.40625 17.015625 -0.796875 16.796875 -1.328125 L 15.375 -4.609375 L 5.65625 -4.609375 L 4.265625 -1.328125 C 4.023438 -0.785156 3.769531 -0.390625 3.5 -0.140625 C 3.238281 0.0976562 2.863281 0.21875 2.375 0.21875 Z M 10.484375 -16 L 6.890625 -7.484375 L 14.140625 -7.484375 L 10.546875 -16 Z M 10.484375 -16 "/></g></g></g><g fill="#ffffff" fill-opacity="1"><g transform="translate(311.042794, 161.979868)"><g><path d="M 8.734375 0.21875 C 7.523438 0.21875 6.921875 -0.410156 6.921875 -1.671875 L 6.921875 -9.15625 L 0.875 -17.671875 C 0.632812 -18.003906 0.523438 -18.363281 0.546875 -18.75 C 0.578125 -19.132812 0.734375 -19.460938 1.015625 -19.734375 C 1.296875 -20.015625 1.691406 -20.15625 2.203125 -20.15625 C 2.941406 -20.15625 3.582031 -19.769531 4.125 -19 L 8.796875 -12.375 L 13.484375 -19 C 13.785156 -19.40625 14.078125 -19.695312 14.359375 -19.875 C 14.640625 -20.0625 14.988281 -20.15625 15.40625 -20.15625 C 16.132812 -20.15625 16.617188 -19.882812 16.859375 -19.34375 C 17.097656 -18.8125 17 -18.242188 16.5625 -17.640625 L 10.546875 -9.125 L 10.546875 -1.671875 C 10.546875 -0.410156 9.941406 0.21875 8.734375 0.21875 Z M 8.734375 0.21875 "/></g></g></g></svg>