<svg xmlns="http://www.w3.org/2000/svg" xmlns:xlink="http://www.w3.org/1999/xlink" width="500" zoomAndPan="magnify" viewBox="0 0 375 374.999991" height="500" preserveAspectRatio="xMidYMid meet" version="1.0"><defs><clipPath id="3748e29808"><path d="M 112.5 112.5 L 262.5 112.5 L 262.5 262.5 L 112.5 262.5 Z M 112.5 112.5 " clip-rule="nonzero"/></clipPath></defs><g clip-path="url(#3748e29808)"><path fill="#004aad" d="M 112.5 159.375 L 112.5 146.875 C 112.5 127.9375 127.9375 112.5 146.875 112.5 L 159.375 112.5 C 164.5625 112.5 168.75 116.6875 168.75 121.875 C 168.75 127.0625 164.5625 131.25 159.375 131.25 L 146.875 131.25 C 138.25 131.25 131.25 138.25 131.25 146.875 L 131.25 159.375 C 131.25 164.5625 127.0625 168.75 121.875 168.75 C 116.6875 168.75 112.5 164.5625 112.5 159.375 Z M 159.375 243.75 L 146.875 243.75 C 138.25 243.75 131.25 236.75 131.25 228.125 L 131.25 215.625 C 131.25 210.4375 127.0625 206.25 121.875 206.25 C 116.6875 206.25 112.5 210.4375 112.5 215.625 L 112.5 228.125 C 112.5 247.0625 127.9375 262.5 146.875 262.5 L 159.375 262.5 C 164.5625 262.5 168.75 258.3125 168.75 253.125 C 168.75 247.9375 164.5625 243.75 159.375 243.75 Z M 253.125 206.25 C 247.9375 206.25 243.75 210.4375 243.75 215.625 L 243.75 228.125 C 243.75 236.75 236.75 243.75 228.125 243.75 L 215.625 243.75 C 210.4375 243.75 206.25 247.9375 206.25 253.125 C 206.25 258.3125 210.4375 262.5 215.625 262.5 L 228.125 262.5 C 247.0625 262.5 262.5 247.0625 262.5 228.125 L 262.5 215.625 C 262.5 210.4375 258.3125 206.25 253.125 206.25 Z M 228.125 112.5 L 215.625 112.5 C 210.4375 112.5 206.25 116.6875 206.25 121.875 C 206.25 127.0625 210.4375 131.25 215.625 131.25 L 228.125 131.25 C 236.75 131.25 243.75 138.25 243.75 146.875 L 243.75 159.375 C 243.75 164.5625 247.9375 168.75 253.125 168.75 C 258.3125 168.75 262.5 164.5625 262.5 159.375 L 262.5 146.875 C 262.5 127.9375 247.0625 112.5 228.125 112.5 Z M 209.9375 219.5625 C 211.875 218.0625 212.625 215.5625 211.875 213.25 L 206.25 196.1875 L 219.8125 185.125 C 221.625 183.5625 222.3125 181.0625 221.5 178.75 C 220.6875 176.4375 218.5 175 216.125 175 L 198.9375 175 L 192.875 158.6875 C 192.0625 156.4375 189.875 154.9375 187.5 154.9375 C 185.125 154.9375 182.9375 156.4375 182.125 158.6875 L 176.0625 175 L 158.875 175 C 156.5 175 154.3125 176.5 153.5 178.75 C 152.6875 181 153.3125 183.5625 155.1875 185.0625 L 168.8125 196.125 L 163.4375 213.375 C 162.6875 215.6875 163.5 218.25 165.4375 219.6875 C 166.4375 220.4375 167.6875 220.8125 168.875 220.8125 C 170 220.8125 171.125 220.5 172.0625 219.875 L 187.5625 209.5 L 203.3125 219.75 C 205.375 221.0625 208 221 209.9375 219.5 Z M 209.9375 219.5625 " fill-opacity="1" fill-rule="nonzero"/></g></svg>