<svg xmlns="http://www.w3.org/2000/svg" xmlns:xlink="http://www.w3.org/1999/xlink" width="500" zoomAndPan="magnify" viewBox="0 0 375 374.999991" height="500" preserveAspectRatio="xMidYMid meet" version="1.0"><defs><clipPath id="561559b11a"><path d="M 241 19 L 362 19 L 362 104 L 241 104 Z M 241 19 " clip-rule="nonzero"/></clipPath><clipPath id="b78051efff"><path d="M 361.269531 21.972656 L 282.398438 130.824219 L 241.542969 101.21875 L 320.410156 -7.632812 Z M 361.269531 21.972656 " clip-rule="nonzero"/></clipPath><clipPath id="744fd9f36d"><path d="M 302.191406 103.511719 L 361.269531 21.972656 L 300.71875 19.546875 L 241.636719 101.085938 Z M 302.191406 103.511719 " clip-rule="nonzero"/></clipPath><clipPath id="ce20c445b4"><path d="M 256 90 L 375 90 L 375 152 L 256 152 Z M 256 90 " clip-rule="nonzero"/></clipPath><clipPath id="3e49cd44b7"><path d="M 386.246094 151.671875 L 252.261719 140.886719 L 256.308594 90.59375 L 390.292969 101.375 Z M 386.246094 151.671875 " clip-rule="nonzero"/></clipPath><clipPath id="32b73f1406"><path d="M 285.878906 143.59375 L 386.246094 151.671875 L 356.839844 98.683594 L 256.472656 90.605469 Z M 285.878906 143.59375 " clip-rule="nonzero"/></clipPath><clipPath id="b68089adb2"><path d="M 0 61.535156 L 331 61.535156 L 331 352.148438 L 0 352.148438 Z M 0 61.535156 " clip-rule="nonzero"/></clipPath><clipPath id="5c598d5df6"><path d="M 165.496094 61.535156 C 74.09375 61.535156 0 126.589844 0 206.839844 C 0 287.09375 74.09375 352.148438 165.496094 352.148438 C 256.898438 352.148438 330.992188 287.09375 330.992188 206.839844 C 330.992188 126.589844 256.898438 61.535156 165.496094 61.535156 Z M 165.496094 61.535156 " clip-rule="nonzero"/></clipPath><clipPath id="503a81b8b7"><path d="M 37.808594 164.9375 L 293.4375 164.9375 L 293.4375 250.257812 L 37.808594 250.257812 Z M 37.808594 164.9375 " clip-rule="nonzero"/></clipPath><clipPath id="004290029a"><path d="M 264.894531 164.9375 C 280.519531 164.9375 293.183594 184.039062 293.183594 207.597656 C 293.183594 231.160156 280.519531 250.257812 264.894531 250.257812 L 66.097656 250.257812 C 50.472656 250.257812 37.808594 231.160156 37.808594 207.597656 C 37.808594 184.039062 50.472656 164.9375 66.097656 164.9375 Z M 264.894531 164.9375 " clip-rule="nonzero"/></clipPath><clipPath id="97be2d7e56"><path d="M 57 151 L 171 151 L 171 264 L 57 264 Z M 57 151 " clip-rule="nonzero"/></clipPath><clipPath id="b53e61fdb3"><path d="M 57.941406 209.644531 L 116.277344 151.308594 L 170.371094 205.402344 L 112.035156 263.738281 Z M 57.941406 209.644531 " clip-rule="nonzero"/></clipPath><clipPath id="ba3a89871b"><path d="M -106.824219 147.292969 L 198.117188 -157.648438 L 459.570312 103.804688 L 154.628906 408.746094 Z M -106.824219 147.292969 " clip-rule="nonzero"/></clipPath><clipPath id="e866350101"><path d="M 80 175 L 147 175 L 147 242 L 80 242 Z M 80 175 " clip-rule="nonzero"/></clipPath><clipPath id="1c0ece3c8c"><path d="M 57.941406 209.644531 L 116.277344 151.308594 L 170.371094 205.402344 L 112.035156 263.738281 Z M 57.941406 209.644531 " clip-rule="nonzero"/></clipPath><clipPath id="9af3097203"><path d="M -106.824219 147.292969 L 198.117188 -157.648438 L 459.570312 103.804688 L 154.628906 408.746094 Z M -106.824219 147.292969 " clip-rule="nonzero"/></clipPath><clipPath id="b2c413f731"><path d="M 187.5 196.808594 L 246.171875 196.808594 L 246.171875 218.386719 L 187.5 218.386719 Z M 187.5 196.808594 " clip-rule="nonzero"/></clipPath><clipPath id="6bbdf017bb"><path d="M 231.46875 196.808594 C 239.5625 196.808594 246.125 201.640625 246.125 207.597656 C 246.125 213.558594 239.5625 218.386719 231.46875 218.386719 L 202.15625 218.386719 C 194.0625 218.386719 187.5 213.558594 187.5 207.597656 C 187.5 201.640625 194.0625 196.808594 202.15625 196.808594 Z M 231.46875 196.808594 " clip-rule="nonzero"/></clipPath></defs><g clip-path="url(#561559b11a)"><g clip-path="url(#b78051efff)"><g clip-path="url(#744fd9f36d)"><path fill="#000000" d="M 361.269531 21.972656 L 282.515625 130.664062 L 241.65625 101.058594 L 320.410156 -7.632812 Z M 361.269531 21.972656 " fill-opacity="1" fill-rule="nonzero"/></g></g></g><g clip-path="url(#ce20c445b4)"><g clip-path="url(#3e49cd44b7)"><g clip-path="url(#32b73f1406)"><path fill="#000000" d="M 386.246094 151.671875 L 252.457031 140.902344 L 256.503906 90.609375 L 390.292969 101.375 Z M 386.246094 151.671875 " fill-opacity="1" fill-rule="nonzero"/></g></g></g><g clip-path="url(#b68089adb2)"><g clip-path="url(#5c598d5df6)"><path fill="#000000" d="M 0 61.535156 L 331.484375 61.535156 L 331.484375 352.148438 L 0 352.148438 Z M 0 61.535156 " fill-opacity="1" fill-rule="nonzero"/></g></g><g clip-path="url(#503a81b8b7)"><g clip-path="url(#004290029a)"><path fill="#ffffff" d="M 37.808594 164.9375 L 293.105469 164.9375 L 293.105469 250.257812 L 37.808594 250.257812 Z M 37.808594 164.9375 " fill-opacity="1" fill-rule="nonzero"/></g></g><g clip-path="url(#97be2d7e56)"><g clip-path="url(#b53e61fdb3)"><g clip-path="url(#ba3a89871b)"><path fill="#00bf63" d="M 294.609375 97.992188 C 294.609375 130.597656 238.640625 150.546875 200.683594 188.503906 C 162.726562 226.457031 142.777344 282.425781 110.175781 282.421875 C 88.011719 282.421875 47.492188 241.902344 47.496094 219.742188 C 47.492188 154.535156 166.71875 35.308594 231.925781 35.308594 C 254.082031 35.3125 294.601562 75.832031 294.609375 97.992188 Z M 54.441406 42.257812 C -19.03125 115.730469 -26.378906 227.5 38.015625 291.898438 C 102.417969 356.300781 214.183594 348.945312 287.65625 275.472656 C 361.125 202 368.480469 90.234375 304.082031 25.835938 C 239.683594 -38.5625 127.910156 -31.214844 54.441406 42.257812 " fill-opacity="1" fill-rule="nonzero"/></g></g></g><g clip-path="url(#e866350101)"><g clip-path="url(#1c0ece3c8c)"><g clip-path="url(#9af3097203)"><path fill="#00bf63" d="M 123.351562 198.589844 L 123.355469 185.195312 C 123.355469 179.722656 118.917969 175.28125 113.441406 175.28125 C 107.96875 175.28125 103.53125 179.71875 103.53125 185.195312 L 103.53125 198.59375 L 90.132812 198.59375 C 84.660156 198.589844 80.222656 203.027344 80.222656 208.503906 C 80.222656 213.976562 84.664062 218.414062 90.136719 218.417969 L 103.53125 218.414062 L 103.53125 231.8125 C 103.53125 237.285156 107.96875 241.722656 113.441406 241.722656 C 118.917969 241.722656 123.355469 237.285156 123.351562 231.8125 L 123.355469 218.417969 L 136.75 218.414062 C 142.226562 218.414062 146.664062 213.976562 146.664062 208.5 C 146.664062 203.027344 142.226562 198.59375 136.753906 198.59375 L 123.351562 198.589844 " fill-opacity="1" fill-rule="nonzero"/></g></g></g><g clip-path="url(#b2c413f731)"><g clip-path="url(#6bbdf017bb)"><path fill="#ff3131" d="M 187.5 196.808594 L 246.085938 196.808594 L 246.085938 218.386719 L 187.5 218.386719 Z M 187.5 196.808594 " fill-opacity="1" fill-rule="nonzero"/></g></g></svg>