<svg xmlns="http://www.w3.org/2000/svg" xmlns:xlink="http://www.w3.org/1999/xlink" width="500" zoomAndPan="magnify" viewBox="0 0 375 374.999991" height="500" preserveAspectRatio="xMidYMid meet" version="1.0"><defs><clipPath id="7ea2ac4498"><path d="M 231 25 L 344 25 L 344 105 L 231 105 Z M 231 25 " clip-rule="nonzero"/></clipPath><clipPath id="e9e697198c"><path d="M 343.234375 27.960938 L 269.292969 130.007812 L 230.988281 102.253906 L 304.925781 0.207031 Z M 343.234375 27.960938 " clip-rule="nonzero"/></clipPath><clipPath id="882b5e3062"><path d="M 287.84375 104.402344 L 343.234375 27.960938 L 286.464844 25.6875 L 231.078125 102.128906 Z M 287.84375 104.402344 " clip-rule="nonzero"/></clipPath><clipPath id="f8c6ca2787"><path d="M 244 92 L 367 92 L 367 150 L 244 150 Z M 244 92 " clip-rule="nonzero"/></clipPath><clipPath id="2c62481a79"><path d="M 366.648438 149.550781 L 241.035156 139.4375 L 244.828125 92.289062 L 370.441406 102.398438 Z M 366.648438 149.550781 " clip-rule="nonzero"/></clipPath><clipPath id="bd91b2ac6e"><path d="M 272.550781 141.976562 L 366.648438 149.550781 L 339.078125 99.875 L 244.980469 92.300781 Z M 272.550781 141.976562 " clip-rule="nonzero"/></clipPath><clipPath id="33edab711f"><path d="M 4.546875 65.042969 L 315 65.042969 L 315 337.5 L 4.546875 337.5 Z M 4.546875 65.042969 " clip-rule="nonzero"/></clipPath><clipPath id="f4ef3beb9b"><path d="M 159.699219 65.042969 C 74.011719 65.042969 4.546875 126.035156 4.546875 201.273438 C 4.546875 276.507812 74.011719 337.5 159.699219 337.5 C 245.390625 337.5 314.855469 276.507812 314.855469 201.273438 C 314.855469 126.035156 245.390625 65.042969 159.699219 65.042969 Z M 159.699219 65.042969 " clip-rule="nonzero"/></clipPath><clipPath id="c814c04bdd"><path d="M 39.992188 161.988281 L 279.648438 161.988281 L 279.648438 241.976562 L 39.992188 241.976562 Z M 39.992188 161.988281 " clip-rule="nonzero"/></clipPath><clipPath id="a6dc01426b"><path d="M 252.886719 161.988281 C 267.535156 161.988281 279.40625 179.894531 279.40625 201.980469 C 279.40625 224.070312 267.535156 241.976562 252.886719 241.976562 L 66.511719 241.976562 C 51.863281 241.976562 39.992188 224.070312 39.992188 201.980469 C 39.992188 179.894531 51.863281 161.988281 66.511719 161.988281 Z M 252.886719 161.988281 " clip-rule="nonzero"/></clipPath><clipPath id="0ddd9628ad"><path d="M 70 159 L 153 159 L 153 243 L 70 243 Z M 70 159 " clip-rule="nonzero"/></clipPath><clipPath id="a22360da30"><path d="M 70.113281 202.773438 L 112.957031 159.925781 L 152.742188 199.714844 L 109.898438 242.558594 Z M 70.113281 202.773438 " clip-rule="nonzero"/></clipPath><clipPath id="5229b0b2c6"><path d="M -50.742188 157.039062 L 172.671875 -66.371094 L 364.253906 125.210938 L 140.84375 348.621094 Z M -50.742188 157.039062 " clip-rule="nonzero"/></clipPath><clipPath id="02b095f594"><path d="M 86 177 L 136 177 L 136 227 L 86 227 Z M 86 177 " clip-rule="nonzero"/></clipPath><clipPath id="e393cd4066"><path d="M 70.113281 202.773438 L 112.957031 159.925781 L 152.742188 199.714844 L 109.898438 242.558594 Z M 70.113281 202.773438 " clip-rule="nonzero"/></clipPath><clipPath id="f5ab42c251"><path d="M -50.742188 157.039062 L 172.671875 -66.371094 L 364.253906 125.210938 L 140.84375 348.621094 Z M -50.742188 157.039062 " clip-rule="nonzero"/></clipPath><clipPath id="031e823ef7"><path d="M 190.933594 193.621094 L 231.105469 193.621094 L 231.105469 208.921875 L 190.933594 208.921875 Z M 190.933594 193.621094 " clip-rule="nonzero"/></clipPath><clipPath id="0b9c547a48"><path d="M 221.050781 193.621094 C 226.59375 193.621094 231.089844 197.046875 231.089844 201.273438 C 231.089844 205.496094 226.59375 208.921875 221.050781 208.921875 L 200.972656 208.921875 C 195.429688 208.921875 190.933594 205.496094 190.933594 201.273438 C 190.933594 197.046875 195.429688 193.621094 200.972656 193.621094 Z M 221.050781 193.621094 " clip-rule="nonzero"/></clipPath></defs><g clip-path="url(#7ea2ac4498)"><g clip-path="url(#e9e697198c)"><g clip-path="url(#882b5e3062)"><path fill="#000000" d="M 343.234375 27.960938 L 269.402344 129.859375 L 231.09375 102.105469 L 304.925781 0.207031 Z M 343.234375 27.960938 " fill-opacity="1" fill-rule="nonzero"/></g></g></g><g clip-path="url(#f8c6ca2787)"><g clip-path="url(#2c62481a79)"><g clip-path="url(#bd91b2ac6e)"><path fill="#000000" d="M 366.648438 149.550781 L 241.21875 139.453125 L 245.011719 92.300781 L 370.441406 102.398438 Z M 366.648438 149.550781 " fill-opacity="1" fill-rule="nonzero"/></g></g></g><g clip-path="url(#33edab711f)"><g clip-path="url(#f4ef3beb9b)"><path fill="#000000" d="M 4.546875 65.042969 L 315.316406 65.042969 L 315.316406 337.5 L 4.546875 337.5 Z M 4.546875 65.042969 " fill-opacity="1" fill-rule="nonzero"/></g></g><g clip-path="url(#c814c04bdd)"><g clip-path="url(#a6dc01426b)"><path fill="#ffffff" d="M 39.992188 161.988281 L 279.335938 161.988281 L 279.335938 241.976562 L 39.992188 241.976562 Z M 39.992188 161.988281 " fill-opacity="1" fill-rule="nonzero"/></g></g><g clip-path="url(#0ddd9628ad)"><g clip-path="url(#a22360da30)"><g clip-path="url(#5229b0b2c6)"><path fill="#00bf63" d="M 243.707031 120.875 C 243.707031 144.789062 202.65625 159.425781 174.816406 187.265625 C 146.972656 215.105469 132.34375 256.15625 108.429688 256.15625 C 92.171875 256.15625 62.449219 226.433594 62.453125 210.179688 C 62.449219 162.347656 149.902344 74.898438 197.730469 74.898438 C 213.980469 74.902344 243.703125 104.621094 243.707031 120.875 Z M 67.546875 79.996094 C 13.65625 133.886719 8.265625 215.867188 55.5 263.105469 C 102.738281 310.34375 184.71875 304.945312 238.605469 251.058594 C 292.5 197.164062 297.894531 115.1875 250.65625 67.949219 C 203.421875 20.714844 121.4375 26.105469 67.546875 79.996094 " fill-opacity="1" fill-rule="nonzero"/></g></g></g><g clip-path="url(#02b095f594)"><g clip-path="url(#e393cd4066)"><g clip-path="url(#f5ab42c251)"><path fill="#00bf63" d="M 118.09375 194.664062 L 118.097656 184.839844 C 118.097656 180.824219 114.839844 177.566406 110.824219 177.566406 C 106.808594 177.566406 103.554688 180.820312 103.554688 184.835938 L 103.554688 194.664062 L 93.726562 194.664062 C 89.710938 194.664062 86.457031 197.917969 86.457031 201.933594 C 86.457031 205.949219 89.714844 209.203125 93.726562 209.207031 L 103.554688 209.203125 L 103.554688 219.03125 C 103.554688 223.046875 106.808594 226.300781 110.824219 226.300781 C 114.839844 226.300781 118.09375 223.046875 118.09375 219.03125 L 118.097656 209.207031 L 127.921875 209.203125 C 131.9375 209.203125 135.191406 205.949219 135.191406 201.933594 C 135.191406 197.917969 131.9375 194.664062 127.921875 194.664062 L 118.09375 194.664062 " fill-opacity="1" fill-rule="nonzero"/></g></g></g><g clip-path="url(#031e823ef7)"><g clip-path="url(#0b9c547a48)"><path fill="#ff3131" d="M 190.933594 193.621094 L 231.105469 193.621094 L 231.105469 208.921875 L 190.933594 208.921875 Z M 190.933594 193.621094 " fill-opacity="1" fill-rule="nonzero"/></g></g></svg>