<svg xmlns="http://www.w3.org/2000/svg" xmlns:xlink="http://www.w3.org/1999/xlink" width="500" zoomAndPan="magnify" viewBox="0 0 375 374.999991" height="500" preserveAspectRatio="xMidYMid meet" version="1.0"><defs><clipPath id="d5de5ad6ea"><path d="M 1 79 L 204 79 L 204 327 L 1 327 Z M 1 79 " clip-rule="nonzero"/></clipPath><clipPath id="3048569a28"><path d="M -4.90625 119.882812 L 144.03125 73.472656 L 210.523438 286.851562 L 61.585938 333.261719 Z M -4.90625 119.882812 " clip-rule="nonzero"/></clipPath><clipPath id="fd04dca257"><path d="M 1.339844 139.929688 L 55.328125 313.183594 C 58.777344 324.257812 70.550781 330.4375 81.625 326.988281 L 190.339844 293.109375 C 201.414062 289.660156 207.59375 277.886719 204.140625 266.8125 L 150.15625 93.558594 C 148.496094 88.242188 144.796875 83.800781 139.863281 81.214844 C 134.933594 78.625 129.175781 78.101562 123.859375 79.757812 L 15.144531 113.636719 C 4.070312 117.085938 -2.109375 128.859375 1.339844 139.929688 Z M 1.339844 139.929688 " clip-rule="nonzero"/></clipPath><clipPath id="a7e61aabd5"><path d="M -3.96875 120.375 L 143.539062 74.410156 L 209.582031 286.359375 L 62.078125 332.324219 Z M -3.96875 120.375 " clip-rule="nonzero"/></clipPath><clipPath id="cdae192f64"><path d="M 16.269531 114.226562 L 123.265625 80.886719 C 128.582031 79.226562 134.339844 79.75 139.273438 82.339844 C 144.203125 84.929688 147.90625 89.371094 149.5625 94.6875 L 203.015625 266.222656 C 206.464844 277.296875 200.285156 289.070312 189.214844 292.519531 L 82.21875 325.859375 C 71.144531 329.308594 59.371094 323.132812 55.921875 312.058594 L 2.46875 140.523438 C -0.980469 129.449219 5.195312 117.675781 16.269531 114.226562 Z M 16.269531 114.226562 " clip-rule="nonzero"/></clipPath><clipPath id="b0f018a5fe"><path d="M -4.90625 119.882812 L 144.03125 73.472656 L 210.523438 286.851562 L 61.585938 333.261719 Z M -4.90625 119.882812 " clip-rule="nonzero"/></clipPath><clipPath id="a2a342cccc"><path d="M -4.847656 119.863281 L 143.894531 73.515625 L 210.414062 286.984375 L 61.671875 333.335938 Z M -4.847656 119.863281 " clip-rule="nonzero"/></clipPath><clipPath id="77b0d92461"><path d="M -4.847656 119.863281 L 143.832031 73.535156 L 210.316406 286.882812 L 61.632812 333.214844 Z M -4.847656 119.863281 " clip-rule="nonzero"/></clipPath><clipPath id="31325a428f"><path d="M 0 78 L 206 78 L 206 328 L 0 328 Z M 0 78 " clip-rule="nonzero"/></clipPath><clipPath id="dbe156d05c"><path d="M -4.90625 119.882812 L 144.03125 73.472656 L 210.523438 286.851562 L 61.585938 333.261719 Z M -4.90625 119.882812 " clip-rule="nonzero"/></clipPath><clipPath id="9d0ebe5604"><path d="M 1.339844 139.929688 L 55.328125 313.183594 C 58.777344 324.257812 70.550781 330.4375 81.625 326.988281 L 190.339844 293.109375 C 201.414062 289.660156 207.59375 277.886719 204.140625 266.8125 L 150.15625 93.558594 C 148.496094 88.242188 144.796875 83.800781 139.863281 81.214844 C 134.933594 78.625 129.175781 78.101562 123.859375 79.757812 L 15.144531 113.636719 C 4.070312 117.085938 -2.109375 128.859375 1.339844 139.929688 Z M 1.339844 139.929688 " clip-rule="nonzero"/></clipPath><clipPath id="64da05ca22"><path d="M -4.90625 119.882812 L 144.03125 73.472656 L 210.523438 286.851562 L 61.585938 333.261719 Z M -4.90625 119.882812 " clip-rule="nonzero"/></clipPath><clipPath id="2b88ab6a36"><path d="M -4.90625 119.882812 L 144.019531 73.476562 L 210.507812 286.851562 L 61.582031 333.257812 Z M -4.90625 119.882812 " clip-rule="nonzero"/></clipPath><clipPath id="f37c50463f"><path d="M 1.339844 139.929688 L 55.328125 313.179688 C 58.777344 324.253906 70.550781 330.433594 81.621094 326.980469 L 190.328125 293.109375 C 201.402344 289.65625 207.578125 277.886719 204.128906 266.8125 L 150.144531 93.5625 C 148.488281 88.246094 144.785156 83.804688 139.855469 81.214844 C 134.921875 78.628906 129.164062 78.105469 123.847656 79.761719 L 15.140625 113.636719 C 4.070312 117.085938 -2.109375 128.859375 1.339844 139.929688 Z M 1.339844 139.929688 " clip-rule="nonzero"/></clipPath><clipPath id="d2c803f5e0"><path d="M 155 73 L 373 73 L 373 326 L 155 326 Z M 155 73 " clip-rule="nonzero"/></clipPath><clipPath id="bd4acec39b"><path d="M 236.976562 66.136719 L 380.023438 128.371094 L 290.863281 333.316406 L 147.8125 271.082031 Z M 236.976562 66.136719 " clip-rule="nonzero"/></clipPath><clipPath id="f983853852"><path d="M 228.597656 85.394531 L 156.203125 251.800781 C 151.574219 262.433594 156.445312 274.808594 167.082031 279.433594 L 271.5 324.859375 C 282.132812 329.488281 294.503906 324.617188 299.132812 313.980469 L 371.527344 147.578125 C 373.75 142.46875 373.851562 136.6875 371.8125 131.507812 C 369.769531 126.324219 365.753906 122.164062 360.648438 119.941406 L 256.230469 74.515625 C 245.597656 69.890625 233.222656 74.757812 228.597656 85.394531 Z M 228.597656 85.394531 " clip-rule="nonzero"/></clipPath><clipPath id="1b1ae15a6a"><path d="M 237.363281 67.125 L 379.035156 128.761719 L 290.472656 332.328125 L 148.800781 270.695312 Z M 237.363281 67.125 " clip-rule="nonzero"/></clipPath><clipPath id="9ee27926c9"><path d="M 256.699219 75.699219 L 359.464844 120.410156 C 364.570312 122.632812 368.585938 126.789062 370.628906 131.972656 C 372.667969 137.15625 372.566406 142.9375 370.34375 148.042969 L 298.667969 312.796875 C 294.039062 323.433594 281.667969 328.304688 271.03125 323.675781 L 168.265625 278.96875 C 157.628906 274.339844 152.761719 261.96875 157.386719 251.332031 L 229.0625 86.578125 C 233.691406 75.945312 246.0625 71.074219 256.699219 75.699219 Z M 256.699219 75.699219 " clip-rule="nonzero"/></clipPath><clipPath id="da6881b2ed"><path d="M 236.976562 66.136719 L 380.023438 128.371094 L 290.863281 333.316406 L 147.8125 271.082031 Z M 236.976562 66.136719 " clip-rule="nonzero"/></clipPath><clipPath id="7c36f29341"><path d="M 237.03125 66.164062 L 379.890625 128.316406 L 290.691406 333.347656 L 147.832031 271.195312 Z M 237.03125 66.164062 " clip-rule="nonzero"/></clipPath><clipPath id="b6e94c9dbf"><path d="M 237.03125 66.164062 L 379.835938 128.289062 L 290.683594 333.207031 L 147.882812 271.078125 Z M 237.03125 66.164062 " clip-rule="nonzero"/></clipPath><clipPath id="bfe5f6c36f"><path d="M 154 72 L 374 72 L 374 327 L 154 327 Z M 154 72 " clip-rule="nonzero"/></clipPath><clipPath id="1cad152d09"><path d="M 236.976562 66.136719 L 380.023438 128.371094 L 290.863281 333.316406 L 147.8125 271.082031 Z M 236.976562 66.136719 " clip-rule="nonzero"/></clipPath><clipPath id="246dd57e6e"><path d="M 228.597656 85.394531 L 156.203125 251.800781 C 151.574219 262.433594 156.445312 274.808594 167.082031 279.433594 L 271.5 324.859375 C 282.132812 329.488281 294.503906 324.617188 299.132812 313.980469 L 371.527344 147.578125 C 373.75 142.46875 373.851562 136.6875 371.8125 131.507812 C 369.769531 126.324219 365.753906 122.164062 360.648438 119.941406 L 256.230469 74.515625 C 245.597656 69.890625 233.222656 74.757812 228.597656 85.394531 Z M 228.597656 85.394531 " clip-rule="nonzero"/></clipPath><clipPath id="39629632e9"><path d="M 236.976562 66.136719 L 380.023438 128.371094 L 290.863281 333.316406 L 147.8125 271.082031 Z M 236.976562 66.136719 " clip-rule="nonzero"/></clipPath><clipPath id="94b1f0fedf"><path d="M 236.976562 66.136719 L 380.011719 128.367188 L 290.855469 333.308594 L 147.816406 271.078125 Z M 236.976562 66.136719 " clip-rule="nonzero"/></clipPath><clipPath id="e884da9acd"><path d="M 228.597656 85.394531 L 156.203125 251.792969 C 151.578125 262.429688 156.449219 274.800781 167.082031 279.429688 L 271.492188 324.851562 C 282.125 329.476562 294.496094 324.605469 299.125 313.972656 L 371.515625 147.570312 C 373.738281 142.464844 373.839844 136.683594 371.800781 131.503906 C 369.761719 126.320312 365.746094 122.160156 360.640625 119.9375 L 256.230469 74.515625 C 245.597656 69.890625 233.222656 74.757812 228.597656 85.394531 Z M 228.597656 85.394531 " clip-rule="nonzero"/></clipPath><clipPath id="c2f9fb0d6d"><path d="M 65 74 L 144 74 L 144 248.042969 L 65 248.042969 Z M 65 74 " clip-rule="nonzero"/></clipPath><clipPath id="ed32ff35f4"><path d="M 55.410156 106 L 232 106 L 232 337.84375 L 55.410156 337.84375 Z M 55.410156 106 " clip-rule="nonzero"/></clipPath><clipPath id="e8dcacd8db"><path d="M 127 106 L 304 106 L 304 337.84375 L 127 337.84375 Z M 127 106 " clip-rule="nonzero"/></clipPath><clipPath id="93c163e79b"><path d="M 273 97.84375 L 345.660156 97.84375 L 345.660156 174 L 273 174 Z M 273 97.84375 " clip-rule="nonzero"/></clipPath><clipPath id="d59d997250"><path d="M 70.488281 150.773438 L 296.265625 150.773438 L 296.265625 169.683594 L 70.488281 169.683594 Z M 70.488281 150.773438 " clip-rule="nonzero"/></clipPath></defs><g clip-path="url(#d5de5ad6ea)"><g clip-path="url(#3048569a28)"><g clip-path="url(#fd04dca257)"><g clip-path="url(#a7e61aabd5)"><g clip-path="url(#cdae192f64)"><g clip-path="url(#b0f018a5fe)"><g clip-path="url(#a2a342cccc)"><g clip-path="url(#77b0d92461)"><path fill="#f63f3f" d="M 196.832031 291.085938 L 75.117188 329.011719 C 67.671875 331.332031 59.753906 327.179688 57.433594 319.730469 L -0.648438 133.347656 C -2.96875 125.898438 1.1875 117.984375 8.636719 115.664062 L 130.351562 77.734375 C 137.796875 75.414062 145.714844 79.570312 148.035156 87.015625 L 206.113281 273.402344 C 208.433594 280.847656 204.277344 288.765625 196.832031 291.085938 " fill-opacity="1" fill-rule="nonzero"/></g></g></g></g></g></g></g></g><g clip-path="url(#31325a428f)"><g clip-path="url(#dbe156d05c)"><g clip-path="url(#9d0ebe5604)"><g clip-path="url(#64da05ca22)"><g clip-path="url(#2b88ab6a36)"><g clip-path="url(#f37c50463f)"><path stroke-linecap="butt" transform="matrix(0.716041, -0.223125, 0.223125, 0.716041, -4.906201, 119.88238)" fill="none" stroke-linejoin="miter" d="M -0.00112587 27.997066 L 0.00135771 269.95315 C -0.000694332 285.418404 12.535169 297.955048 27.997 297.950578 L 179.812495 297.954448 C 195.279299 297.951527 207.80942 285.419087 207.811472 269.953833 L 207.813961 27.999298 C 207.814461 20.574734 204.862282 13.452084 199.614281 8.199866 C 194.359758 2.951071 187.237911 0.000820322 179.813346 0.000321049 L 27.996302 0.00142364 C 12.53602 0.000921084 -0.000623313 12.536785 -0.00112587 27.997066 Z M -0.00112587 27.997066 " stroke="#000000" stroke-width="20" stroke-opacity="1" stroke-miterlimit="4"/></g></g></g></g></g></g><g clip-path="url(#d2c803f5e0)"><g clip-path="url(#bd4acec39b)"><g clip-path="url(#f983853852)"><g clip-path="url(#1b1ae15a6a)"><g clip-path="url(#9ee27926c9)"><g clip-path="url(#da6881b2ed)"><g clip-path="url(#7c36f29341)"><g clip-path="url(#b6e94c9dbf)"><path fill="#1df67a" d="M 277.734375 327.574219 L 160.832031 276.714844 C 153.679688 273.601562 150.402344 265.28125 153.515625 258.128906 L 231.398438 79.113281 C 234.507812 71.960938 242.828125 68.683594 249.980469 71.796875 L 366.882812 122.65625 C 374.035156 125.765625 377.3125 134.085938 374.199219 141.238281 L 296.320312 320.257812 C 293.207031 327.410156 284.886719 330.683594 277.734375 327.574219 " fill-opacity="1" fill-rule="nonzero"/></g></g></g></g></g></g></g></g><g clip-path="url(#bfe5f6c36f)"><g clip-path="url(#1cad152d09)"><g clip-path="url(#246dd57e6e)"><g clip-path="url(#39629632e9)"><g clip-path="url(#94b1f0fedf)"><g clip-path="url(#e884da9acd)"><path stroke-linecap="butt" transform="matrix(0.687734, 0.299201, -0.299201, 0.687734, 236.974955, 66.138284)" fill="none" stroke-linejoin="miter" d="M 0.000242827 27.999436 L -0.0025905 269.952275 C 0.000516421 285.417242 12.536454 297.951624 27.998722 297.95537 L 179.815142 297.952773 C 195.275332 297.951743 207.811791 285.42058 207.81346 269.953536 L 207.80944 27.997999 C 207.811279 20.573593 204.86033 13.451189 199.612148 8.202906 C 194.361888 2.949846 187.239386 -0.000558646 179.814981 -0.002398 L 27.99856 0.000199637 C 12.538371 0.00122892 -0.00286409 12.53447 0.000242827 27.999436 Z M 0.000242827 27.999436 " stroke="#000000" stroke-width="20" stroke-opacity="1" stroke-miterlimit="4"/></g></g></g></g></g></g><g clip-path="url(#c2f9fb0d6d)"><path fill="#000000" d="M 113.453125 74.207031 L 112.917969 74.207031 L 108.832031 74.503906 C 99.429688 77.09375 94.253906 78.707031 93.316406 79.332031 C 87.59375 81.613281 83.4375 84.078125 80.847656 86.722656 C 76.683594 90.695312 74.203125 99.25 73.402344 112.386719 C 69.792969 115.859375 67.445312 118.441406 66.367188 120.128906 C 65.882812 120.277344 65.492188 121.980469 65.195312 125.238281 C 64.953125 128.691406 65.210938 132.824219 65.972656 137.632812 C 67.402344 143.851562 69.347656 150.152344 71.8125 156.53125 C 71.59375 171.988281 72.929688 185.472656 75.816406 196.988281 C 80.941406 216.066406 88.246094 233.078125 97.734375 248.023438 C 98.09375 248.023438 98.042969 246.828125 97.582031 244.433594 L 88.480469 201.03125 C 87.324219 190.015625 87.351562 182.097656 88.570312 177.277344 C 88.832031 176.445312 89.175781 176.429688 89.601562 177.234375 C 90.65625 185.203125 92.757812 193.242188 95.898438 201.351562 C 98.660156 207.136719 100.421875 209.160156 101.191406 207.429688 C 101.375 207.414062 101.523438 206.15625 101.632812 203.664062 C 101.570312 187.078125 101.71875 176.851562 102.078125 172.980469 C 103.339844 160.105469 105.105469 150.683594 107.371094 144.714844 C 109.492188 138.367188 112.132812 132.605469 115.292969 127.425781 C 118.453125 122.246094 122.132812 117.648438 126.332031 113.636719 L 143.949219 81.644531 C 129.5 76.164062 119.335938 73.683594 113.453125 74.207031 " fill-opacity="0.996" fill-rule="nonzero"/></g><path fill="#000000" d="M 237.960938 106.496094 L 104.746094 119.84375 C 109.644531 131.257812 113.320312 138.398438 115.773438 141.269531 C 119.144531 146.398438 123.132812 151.773438 127.738281 157.390625 C 136.941406 168.625 148.605469 180.839844 162.734375 194.035156 C 164.34375 194.46875 164.761719 193.042969 163.984375 189.765625 L 157.214844 171.394531 C 176.613281 186.917969 189.917969 196.382812 197.140625 199.796875 C 198.410156 200.066406 198.730469 199.34375 198.101562 197.628906 L 188.171875 178.058594 C 187.542969 176.769531 187.625 175.960938 188.410156 175.636719 C 189.589844 175.457031 191.640625 176.066406 194.554688 177.464844 L 220.742188 191.753906 C 222.636719 192.789062 223.835938 193.234375 224.335938 193.09375 L 220.558594 167.820312 C 221.976562 173.402344 224.492188 179.292969 228.105469 185.484375 C 230.199219 189.957031 236.429688 198.179688 246.800781 210.144531 C 248.21875 211.5625 249.503906 212.007812 250.65625 211.480469 C 251.367188 211.429688 253.84375 208.71875 258.089844 203.351562 C 258.53125 202.953125 258.859375 203.003906 259.070312 203.507812 L 254.476562 238.558594 C 254.234375 242.558594 254.320312 244.367188 254.726562 243.984375 C 264.25 234.816406 271.214844 224.671875 275.628906 213.546875 L 278.527344 204.980469 C 280.148438 199.136719 281.164062 193.03125 281.570312 186.664062 C 281.976562 180.300781 281.773438 173.671875 280.957031 166.78125 C 280.375 160.96875 279.214844 155.453125 277.476562 150.238281 L 274.433594 142.644531 C 272.117188 137.730469 269.21875 133.113281 265.746094 128.796875 C 258.796875 120.164062 249.535156 112.730469 237.960938 106.496094 " fill-opacity="0.996" fill-rule="nonzero"/><path fill="#000000" d="M 204.054688 34.695312 L 201.714844 34.757812 C 194.507812 34.953125 186.121094 37.65625 176.554688 42.875 C 159.96875 51.160156 148.285156 58.644531 141.507812 65.320312 C 134.859375 72.0625 130.003906 79.085938 126.941406 86.394531 C 123.898438 95.648438 122.609375 101.289062 123.078125 103.308594 C 122.890625 107.175781 123.152344 111.113281 123.863281 115.117188 L 252.867188 131.222656 C 258.222656 132.578125 262.605469 134.105469 266.015625 135.8125 L 297.730469 154.835938 C 298.144531 155.03125 298.539062 155.144531 298.921875 155.167969 C 299.5625 155.054688 299.714844 154.566406 299.382812 153.710938 C 297.742188 150.21875 296.542969 148.003906 295.796875 147.066406 C 292.617188 142.1875 287.863281 136.40625 281.535156 129.71875 C 274.660156 122.191406 261.675781 110.710938 242.589844 95.269531 C 242.761719 93.695312 247.835938 94.8125 257.808594 98.625 C 266.132812 101.800781 279.570312 107.902344 298.113281 116.925781 C 299.976562 117.769531 300.707031 117.59375 300.304688 116.402344 C 291.207031 105.023438 280.785156 94.953125 269.039062 86.191406 C 263.167969 81.8125 256.964844 77.761719 250.429688 74.035156 L 240.375 68.695312 C 233.511719 65.296875 226.3125 62.226562 218.785156 59.484375 C 219.078125 57.492188 223.925781 57.550781 233.339844 59.65625 C 241.554688 61.523438 255.234375 65.914062 274.378906 72.824219 C 276.148438 73.328125 276.742188 73.160156 276.167969 72.332031 C 244.371094 46.46875 220.332031 33.921875 204.054688 34.695312 " fill-opacity="0.996" fill-rule="nonzero"/><path fill="#000000" d="M 146.933594 45.402344 L 145.136719 45.4375 C 140.402344 45.617188 136.109375 46.515625 132.261719 48.128906 C 122.128906 53.550781 114.054688 59.390625 108.046875 65.648438 L 103.925781 70.421875 C 101.433594 73.65625 99.460938 76.996094 98 80.4375 C 96.542969 83.878906 95.597656 87.425781 95.171875 91.078125 C 94.988281 94.941406 95.015625 97.195312 95.25 97.835938 C 95.621094 100.679688 96.445312 103.304688 97.714844 105.71875 C 97.722656 106.113281 99.097656 108.074219 101.84375 111.601562 C 105.707031 116.304688 110.113281 120.121094 115.066406 123.042969 C 120.214844 125.972656 126.71875 128.242188 134.578125 129.855469 C 141.992188 131.339844 148.847656 131.949219 155.148438 131.679688 C 162.535156 131.433594 169.871094 130.210938 177.15625 128.007812 L 184.488281 55.546875 C 173.554688 51.359375 165.371094 48.527344 159.945312 47.054688 C 158.269531 46.238281 153.933594 45.6875 146.933594 45.402344 " fill-opacity="0.996" fill-rule="nonzero"/><g clip-path="url(#ed32ff35f4)"><path fill="#000000" d="M 179.984375 106.097656 L 165.21875 106.507812 C 126.945312 108.695312 97.46875 119.632812 76.785156 139.320312 C 63.78125 155.1875 56.8125 176.40625 55.878906 202.980469 C 55.570312 211.835938 55.929688 221.289062 56.957031 231.335938 L 59.007812 246.851562 C 64.308594 265.265625 71.882812 281.019531 81.726562 294.113281 C 91.574219 307.203125 103.695312 317.632812 118.085938 325.402344 C 133.703125 333.246094 149.328125 337.082031 164.96875 336.90625 C 167.820312 337.488281 175.714844 336.4375 188.652344 333.753906 C 193.75 332.351562 198.738281 330.484375 203.613281 328.148438 C 213.363281 323.476562 222.675781 316.9375 231.542969 308.53125 L 183.839844 106.121094 L 179.984375 106.097656 " fill-opacity="0.996" fill-rule="nonzero"/></g><g clip-path="url(#e8dcacd8db)"><path fill="#000000" d="M 179.515625 106.097656 L 194.28125 106.507812 C 232.554688 108.695312 262.03125 119.632812 282.710938 139.320312 C 295.714844 155.1875 302.683594 176.40625 303.617188 202.980469 C 303.929688 211.835938 303.570312 221.289062 302.539062 231.335938 L 300.492188 246.851562 C 295.191406 265.265625 287.617188 281.019531 277.769531 294.113281 C 267.921875 307.203125 255.804688 317.632812 241.414062 325.402344 C 225.796875 333.246094 210.167969 337.082031 194.53125 336.90625 C 191.675781 337.488281 183.78125 336.4375 170.84375 333.753906 C 165.746094 332.351562 160.761719 330.484375 155.886719 328.148438 C 146.132812 323.476562 136.824219 316.9375 127.957031 308.53125 L 175.65625 106.121094 L 179.515625 106.097656 " fill-opacity="0.996" fill-rule="nonzero"/></g><path fill="#fefefe" d="M 165.09375 176.921875 L 160.929688 176.941406 C 124.816406 177.644531 104.511719 179.125 100.019531 181.386719 C 94.089844 182.699219 88.757812 185.207031 84.023438 188.917969 C 80.84375 191.445312 78.226562 194.347656 76.171875 197.621094 C 74.117188 200.894531 72.621094 204.542969 71.6875 208.5625 L 70.703125 214.871094 C 70.058594 224.519531 71.449219 233.933594 74.878906 243.113281 C 77.863281 250.632812 81.730469 256.449219 86.480469 260.570312 C 90.878906 264.679688 96.863281 267.105469 104.433594 267.847656 C 107.535156 268.027344 112.226562 267.164062 118.503906 265.253906 C 125.003906 262.972656 133.484375 259.429688 143.9375 254.628906 C 147.171875 253.34375 149.804688 252.460938 151.839844 251.96875 C 153.554688 251.527344 156.683594 251.066406 161.238281 250.582031 C 173.617188 249.808594 181.945312 249.023438 186.222656 248.222656 C 193.117188 246.980469 198.09375 245.144531 201.152344 242.707031 L 183.726562 177.558594 C 177.414062 177.085938 171.203125 176.875 165.09375 176.921875 " fill-opacity="0.996" fill-rule="nonzero"/><path fill="#fefefe" d="M 194.40625 176.921875 L 198.570312 176.941406 C 234.683594 177.644531 254.988281 179.125 259.480469 181.386719 C 265.410156 182.699219 270.742188 185.207031 275.476562 188.917969 C 278.652344 191.445312 281.269531 194.347656 283.324219 197.621094 C 285.382812 200.894531 286.878906 204.542969 287.8125 208.5625 L 288.792969 214.871094 C 289.4375 224.519531 288.046875 233.933594 284.621094 243.113281 C 281.632812 250.632812 277.765625 256.449219 273.015625 260.570312 C 268.621094 264.679688 262.636719 267.105469 255.066406 267.847656 C 251.964844 268.027344 247.273438 267.164062 240.996094 265.253906 C 234.492188 262.972656 226.015625 259.429688 215.558594 254.628906 C 212.328125 253.34375 209.695312 252.460938 207.65625 251.96875 C 205.945312 251.527344 202.8125 251.066406 198.261719 250.582031 C 185.878906 249.808594 177.550781 249.023438 173.277344 248.222656 C 166.378906 246.980469 161.402344 245.144531 158.347656 242.707031 L 175.769531 177.558594 C 182.082031 177.085938 188.292969 176.875 194.40625 176.921875 " fill-opacity="0.996" fill-rule="nonzero"/><path fill="#000000" d="M 121.210938 208.292969 L 120.242188 208.652344 C 119.609375 208.929688 119.007812 209.277344 118.4375 209.695312 C 118.113281 209.816406 117.320312 210.605469 116.054688 212.066406 C 114.503906 214.210938 113.40625 216.511719 112.765625 218.976562 C 111.675781 223.265625 112.082031 227.308594 113.984375 231.113281 L 115.117188 233.050781 L 116.480469 234.746094 L 118.066406 236.203125 L 119.882812 237.421875 L 121.925781 238.398438 C 126.957031 240.210938 131.605469 240.191406 135.878906 238.339844 L 137.84375 237.296875 L 139.683594 235.972656 L 141.390625 234.355469 C 142.484375 233.183594 143.488281 231.820312 144.40625 230.265625 L 145.386719 227.851562 C 145.929688 226.261719 146.253906 224.707031 146.359375 223.195312 L 146.355469 220.957031 L 146.027344 218.777344 C 145.699219 217.34375 145.152344 215.949219 144.386719 214.59375 C 143.621094 213.238281 142.636719 211.921875 141.4375 210.644531 L 121.210938 208.292969 " fill-opacity="0.996" fill-rule="nonzero"/><path fill="#000000" d="M 238.289062 208.292969 L 239.257812 208.652344 C 239.886719 208.929688 240.488281 209.277344 241.0625 209.695312 C 241.386719 209.816406 242.179688 210.605469 243.441406 212.066406 C 244.996094 214.210938 246.09375 216.511719 246.734375 218.976562 C 247.820312 223.265625 247.414062 227.308594 245.511719 231.113281 L 244.378906 233.050781 L 243.019531 234.746094 L 241.429688 236.203125 L 239.617188 237.421875 L 237.574219 238.398438 C 232.542969 240.210938 227.890625 240.191406 223.621094 238.339844 L 221.652344 237.296875 L 219.816406 235.972656 L 218.109375 234.355469 C 217.015625 233.183594 216.007812 231.820312 215.089844 230.265625 L 214.113281 227.851562 C 213.570312 226.261719 213.246094 224.707031 213.136719 223.195312 L 213.140625 220.957031 L 213.472656 218.777344 C 213.800781 217.34375 214.347656 215.949219 215.113281 214.59375 C 215.878906 213.238281 216.863281 211.921875 218.0625 210.644531 L 238.289062 208.292969 " fill-opacity="0.996" fill-rule="nonzero"/><path fill="#fefefe" d="M 138.207031 218.917969 L 138.207031 219.558594 C 138.089844 220.855469 137.566406 221.921875 136.632812 222.757812 C 135.695312 223.59375 134.546875 223.984375 133.191406 223.929688 C 131.898438 223.816406 130.832031 223.289062 129.996094 222.355469 C 129.160156 221.414062 128.769531 220.265625 128.824219 218.914062 C 128.941406 217.613281 129.464844 216.546875 130.398438 215.710938 C 131.339844 214.875 132.484375 214.484375 133.839844 214.539062 C 135.136719 214.65625 136.203125 215.183594 137.039062 216.117188 C 137.304688 216.417969 137.53125 216.75 137.714844 217.117188 L 137.957031 217.683594 C 138.09375 218.074219 138.175781 218.484375 138.207031 218.917969 " fill-opacity="0.996" fill-rule="nonzero"/><path fill="#fefefe" d="M 221.289062 218.917969 L 221.289062 219.558594 C 221.40625 220.855469 221.929688 221.921875 222.863281 222.757812 C 223.804688 223.59375 224.953125 223.984375 226.304688 223.929688 C 227.601562 223.816406 228.667969 223.289062 229.503906 222.355469 C 230.339844 221.414062 230.730469 220.265625 230.675781 218.914062 C 230.558594 217.613281 230.03125 216.546875 229.097656 215.710938 C 228.160156 214.875 227.011719 214.484375 225.660156 214.539062 C 224.363281 214.65625 223.296875 215.183594 222.460938 216.117188 C 222.191406 216.417969 221.96875 216.75 221.78125 217.117188 L 221.542969 217.683594 C 221.40625 218.074219 221.320312 218.484375 221.289062 218.917969 " fill-opacity="0.996" fill-rule="nonzero"/><path fill="#000000" d="M 100.542969 196.402344 C 98.078125 196.402344 95.910156 198.1875 95.503906 200.699219 C 95.050781 203.484375 96.941406 206.113281 99.726562 206.566406 C 112.84375 208.699219 127.128906 211.125 142.578125 213.851562 C 142.878906 213.90625 143.175781 213.929688 143.472656 213.929688 C 145.90625 213.929688 148.0625 212.183594 148.496094 209.703125 C 148.988281 206.921875 147.132812 204.269531 144.351562 203.777344 C 128.855469 201.042969 114.527344 198.609375 101.367188 196.46875 C 101.089844 196.421875 100.8125 196.402344 100.542969 196.402344 Z M 100.542969 196.402344 " fill-opacity="1" fill-rule="nonzero"/><path fill="#000000" d="M 258.957031 196.402344 C 261.417969 196.402344 263.585938 198.1875 263.996094 200.699219 C 264.449219 203.484375 262.554688 206.113281 259.769531 206.566406 C 246.652344 208.699219 232.371094 211.125 216.921875 213.851562 C 216.621094 213.90625 216.320312 213.929688 216.027344 213.929688 C 213.59375 213.929688 211.4375 212.183594 211 209.703125 C 210.511719 206.921875 212.367188 204.269531 215.144531 203.777344 C 230.640625 201.042969 244.972656 198.609375 258.132812 196.46875 C 258.410156 196.421875 258.683594 196.402344 258.957031 196.402344 Z M 258.957031 196.402344 " fill-opacity="1" fill-rule="nonzero"/><g clip-path="url(#93c163e79b)"><path fill="#000000" d="M 291.746094 97.980469 L 290.15625 98.980469 C 287.550781 101.082031 286 102.511719 285.511719 103.273438 C 284.496094 104.445312 283.496094 105.757812 282.507812 107.210938 C 280.460938 110.164062 278.601562 113.605469 276.9375 117.539062 C 273.96875 124.921875 273.015625 131.375 274.070312 136.902344 L 289.144531 160.261719 C 292.902344 162.203125 297.429688 166.378906 302.71875 172.792969 C 303.058594 173.089844 303.484375 173.152344 303.988281 172.992188 C 309.871094 166.863281 312.84375 163.273438 312.898438 162.21875 C 312.828125 161.65625 312.367188 160.941406 311.519531 160.078125 L 300.5625 148.734375 C 302.011719 149.746094 303.476562 150.644531 304.957031 151.429688 L 307.210938 152.527344 C 308.730469 153.199219 310.277344 153.761719 311.851562 154.210938 C 316.871094 155.523438 321.566406 155.898438 325.925781 155.328125 C 330.304688 154.609375 334.082031 153.28125 337.261719 151.34375 L 341.636719 148.132812 C 342.546875 147.371094 343.296875 146.664062 343.882812 146.019531 C 345.058594 144.722656 345.589844 143.652344 345.472656 142.8125 C 345.238281 141.929688 342.296875 139.707031 336.652344 136.140625 C 334.503906 134.691406 331.035156 133.257812 326.234375 131.832031 C 317.035156 129.320312 309.191406 129.085938 302.703125 131.128906 C 303.265625 123.585938 302.855469 117.214844 301.476562 112.011719 L 300.257812 108.328125 C 299.324219 106.019531 298.148438 104 296.730469 102.277344 C 295.308594 100.554688 293.648438 99.121094 291.746094 97.980469 " fill-opacity="0.996" fill-rule="nonzero"/></g><g clip-path="url(#d59d997250)"><path fill="#004aad" d="M 70.488281 150.773438 L 296.300781 150.773438 L 296.300781 169.683594 L 70.488281 169.683594 Z M 70.488281 150.773438 " fill-opacity="1" fill-rule="nonzero"/></g></svg>