<svg xmlns="http://www.w3.org/2000/svg" xmlns:xlink="http://www.w3.org/1999/xlink" width="500" zoomAndPan="magnify" viewBox="0 0 375 374.999991" height="500" preserveAspectRatio="xMidYMid meet" version="1.0"><defs><clipPath id="71fdbe151b"><path d="M 1 2 L 277 2 L 277 337 L 1 337 Z M 1 2 " clip-rule="nonzero"/></clipPath><clipPath id="89a17ab5cd"><path d="M -5 58.058594 L 194.058594 -3.96875 L 283.085938 281.730469 L 84.027344 343.761719 Z M -5 58.058594 " clip-rule="nonzero"/></clipPath><clipPath id="534033dbf3"><path d="M 1.246094 78.109375 L 77.636719 323.253906 C 81.085938 334.328125 92.859375 340.503906 103.933594 337.054688 L 262.792969 287.554688 C 273.863281 284.101562 280.042969 272.328125 276.59375 261.257812 L 200.203125 16.113281 C 196.753906 5.039062 184.980469 -1.140625 173.90625 2.3125 L 15.050781 51.8125 C 3.976562 55.261719 -2.203125 67.035156 1.246094 78.109375 Z M 1.246094 78.109375 " clip-rule="nonzero"/></clipPath><clipPath id="e709007d15"><path d="M -4.0625 58.554688 L 193.566406 -3.03125 L 282.148438 281.238281 L 84.519531 342.820312 Z M -4.0625 58.554688 " clip-rule="nonzero"/></clipPath><clipPath id="600397c4e7"><path d="M 16.175781 52.402344 L 173.316406 3.4375 C 184.390625 -0.0117188 196.164062 6.167969 199.613281 17.238281 L 275.464844 260.664062 C 278.917969 271.738281 272.738281 283.511719 261.664062 286.960938 L 104.523438 335.929688 C 93.453125 339.378906 81.679688 333.199219 78.226562 322.125 L 2.375 78.699219 C -1.074219 67.628906 5.101562 55.855469 16.175781 52.402344 Z M 16.175781 52.402344 " clip-rule="nonzero"/></clipPath><clipPath id="8abdd1b5b9"><path d="M -5 58.058594 L 194.058594 -3.96875 L 282.863281 281.015625 L 83.804688 343.042969 Z M -5 58.058594 " clip-rule="nonzero"/></clipPath><clipPath id="19d5bd4a4f"><path d="M -4.921875 58.035156 L 193.941406 -3.933594 L 282.878906 281.476562 L 84.015625 343.441406 Z M -4.921875 58.035156 " clip-rule="nonzero"/></clipPath><clipPath id="bb71105e77"><path d="M -4.921875 58.035156 L 193.863281 -3.90625 L 282.75 281.339844 L 83.964844 343.28125 Z M -4.921875 58.035156 " clip-rule="nonzero"/></clipPath><clipPath id="862562c263"><path d="M 0 1 L 278 1 L 278 339 L 0 339 Z M 0 1 " clip-rule="nonzero"/></clipPath><clipPath id="f0718c2e39"><path d="M -5 58.058594 L 194.058594 -3.96875 L 283.085938 281.730469 L 84.027344 343.761719 Z M -5 58.058594 " clip-rule="nonzero"/></clipPath><clipPath id="e97d6fa6ba"><path d="M 1.246094 78.109375 L 77.636719 323.253906 C 81.085938 334.328125 92.859375 340.503906 103.933594 337.054688 L 262.792969 287.554688 C 273.863281 284.101562 280.042969 272.328125 276.59375 261.257812 L 200.203125 16.113281 C 196.753906 5.039062 184.980469 -1.140625 173.90625 2.3125 L 15.050781 51.8125 C 3.976562 55.261719 -2.203125 67.035156 1.246094 78.109375 Z M 1.246094 78.109375 " clip-rule="nonzero"/></clipPath><clipPath id="de5e2e50b6"><path d="M -5 58.058594 L 194.058594 -3.96875 L 282.863281 281.015625 L 83.804688 343.042969 Z M -5 58.058594 " clip-rule="nonzero"/></clipPath><clipPath id="bcf9339e42"><path d="M -5 58.058594 L 194.050781 -3.964844 L 283.078125 281.734375 L 84.027344 343.761719 Z M -5 58.058594 " clip-rule="nonzero"/></clipPath><clipPath id="ca4d973604"><path d="M 1.246094 78.109375 L 77.636719 323.253906 C 81.085938 334.324219 92.859375 340.503906 103.933594 337.054688 L 262.785156 287.554688 C 273.855469 284.105469 280.035156 272.332031 276.585938 261.257812 L 200.195312 16.117188 C 196.746094 5.042969 184.972656 -1.136719 173.898438 2.3125 L 15.046875 51.8125 C 3.976562 55.261719 -2.203125 67.035156 1.246094 78.109375 Z M 1.246094 78.109375 " clip-rule="nonzero"/></clipPath><clipPath id="d4cc1f05fc"><path d="M 109 62 L 373 62 L 373 368 L 109 368 Z M 109 62 " clip-rule="nonzero"/></clipPath><clipPath id="848e44929f"><path d="M 208.746094 54.976562 L 380.679688 129.777344 L 273.867188 375.300781 L 101.933594 300.5 Z M 208.746094 54.976562 " clip-rule="nonzero"/></clipPath><clipPath id="322c3239b7"><path d="M 200.371094 74.234375 L 110.3125 281.242188 C 105.683594 291.875 110.554688 304.25 121.191406 308.875 L 253.925781 366.621094 C 264.5625 371.25 276.933594 366.378906 281.5625 355.742188 L 371.621094 148.738281 C 376.246094 138.101562 371.375 125.730469 360.742188 121.101562 L 228.003906 63.355469 C 217.367188 58.726562 204.996094 63.597656 200.371094 74.234375 Z M 200.371094 74.234375 " clip-rule="nonzero"/></clipPath><clipPath id="196eda5a95"><path d="M 209.136719 55.964844 L 379.007812 129.867188 L 272.789062 374.011719 L 102.917969 300.109375 Z M 209.136719 55.964844 " clip-rule="nonzero"/></clipPath><clipPath id="091a20851f"><path d="M 228.46875 64.539062 L 359.558594 121.570312 C 370.191406 126.195312 375.0625 138.566406 370.4375 149.203125 L 281.09375 354.558594 C 276.46875 365.195312 264.097656 370.066406 253.460938 365.4375 L 122.375 308.410156 C 111.738281 303.78125 106.867188 291.410156 111.496094 280.773438 L 200.835938 75.417969 C 205.464844 64.785156 217.835938 59.914062 228.46875 64.539062 Z M 228.46875 64.539062 " clip-rule="nonzero"/></clipPath><clipPath id="d42a69f7d7"><path d="M 208.746094 54.976562 L 379.992188 129.480469 L 273.179688 375 L 101.933594 300.5 Z M 208.746094 54.976562 " clip-rule="nonzero"/></clipPath><clipPath id="5bc559b1af"><path d="M 208.820312 55.007812 L 379.984375 129.476562 L 273.113281 375.128906 L 101.949219 300.664062 Z M 208.820312 55.007812 " clip-rule="nonzero"/></clipPath><clipPath id="2a248d0e35"><path d="M 208.820312 55.007812 L 379.917969 129.445312 L 273.105469 374.960938 L 102.007812 300.523438 Z M 208.820312 55.007812 " clip-rule="nonzero"/></clipPath><clipPath id="a14786e334"><path d="M 108 61 L 374 61 L 374 369 L 108 369 Z M 108 61 " clip-rule="nonzero"/></clipPath><clipPath id="17f1d2f59d"><path d="M 208.746094 54.976562 L 380.679688 129.777344 L 273.867188 375.300781 L 101.933594 300.5 Z M 208.746094 54.976562 " clip-rule="nonzero"/></clipPath><clipPath id="38965a274f"><path d="M 200.371094 74.234375 L 110.3125 281.242188 C 105.683594 291.875 110.554688 304.25 121.191406 308.875 L 253.925781 366.621094 C 264.5625 371.25 276.933594 366.378906 281.5625 355.742188 L 371.621094 148.738281 C 376.246094 138.101562 371.375 125.730469 360.742188 121.101562 L 228.003906 63.355469 C 217.367188 58.726562 204.996094 63.597656 200.371094 74.234375 Z M 200.371094 74.234375 " clip-rule="nonzero"/></clipPath><clipPath id="6506841542"><path d="M 208.746094 54.976562 L 379.992188 129.480469 L 273.179688 375 L 101.933594 300.5 Z M 208.746094 54.976562 " clip-rule="nonzero"/></clipPath><clipPath id="1f3dc6b5b1"><path d="M 208.746094 54.976562 L 380.675781 129.777344 L 273.867188 375.289062 L 101.9375 300.488281 Z M 208.746094 54.976562 " clip-rule="nonzero"/></clipPath><clipPath id="1e2f863e98"><path d="M 200.371094 74.234375 L 110.316406 281.230469 C 105.6875 291.867188 110.558594 304.238281 121.195312 308.867188 L 253.925781 366.613281 C 264.5625 371.238281 276.933594 366.367188 281.5625 355.734375 L 371.617188 148.734375 C 376.242188 138.101562 371.371094 125.726562 360.738281 121.101562 L 228.003906 63.355469 C 217.367188 58.726562 204.996094 63.597656 200.371094 74.234375 Z M 200.371094 74.234375 " clip-rule="nonzero"/></clipPath><clipPath id="4e553c043f"><path d="M 37.5 48.222656 L 333 48.222656 L 333 326 L 37.5 326 Z M 37.5 48.222656 " clip-rule="nonzero"/></clipPath></defs><rect x="-37.5" width="450" fill="#ffffff" y="-37.499999" height="449.999989" fill-opacity="1"/><rect x="-37.5" width="450" fill="#ffffff" y="-37.499999" height="449.999989" fill-opacity="1"/><g clip-path="url(#71fdbe151b)"><g clip-path="url(#89a17ab5cd)"><g clip-path="url(#534033dbf3)"><g clip-path="url(#e709007d15)"><g clip-path="url(#600397c4e7)"><g clip-path="url(#8abdd1b5b9)"><g clip-path="url(#19d5bd4a4f)"><g clip-path="url(#bb71105e77)"><path fill="#f63f3f" d="M 264.722656 286.957031 L 101.992188 337.664062 C 92.035156 340.769531 81.449219 335.210938 78.347656 325.257812 L 0.695312 76.0625 C -2.40625 66.105469 3.148438 55.519531 13.105469 52.417969 L 175.835938 1.710938 C 185.792969 -1.390625 196.378906 4.164062 199.480469 14.117188 L 277.132812 263.3125 C 280.234375 273.269531 274.675781 283.855469 264.722656 286.957031 " fill-opacity="1" fill-rule="nonzero"/></g></g></g></g></g></g></g></g><g clip-path="url(#862562c263)"><g clip-path="url(#f0718c2e39)"><g clip-path="url(#e97d6fa6ba)"><g clip-path="url(#de5e2e50b6)"><g clip-path="url(#bcf9339e42)"><g clip-path="url(#ca4d973604)"><path stroke-linecap="butt" transform="matrix(0.716041, -0.223125, 0.223125, 0.716041, -5.000083, 58.060297)" fill="none" stroke-linejoin="miter" d="M -0.00166081 27.999377 L -0.0000322037 370.360814 C -0.00053493 385.821098 12.535329 398.357744 28.000584 398.359796 L 249.847662 398.35934 C 265.307945 398.359842 277.844589 385.823977 277.846642 370.35872 L 277.843463 28.002255 C 277.845516 12.536999 265.309651 0.000353374 249.844396 -0.00169867 L 27.997318 -0.00124263 C 12.537036 -0.0017452 0.000391394 12.53412 -0.00166081 27.999377 Z M -0.00166081 27.999377 " stroke="#000000" stroke-width="20" stroke-opacity="1" stroke-miterlimit="4"/></g></g></g></g></g></g><g clip-path="url(#d4cc1f05fc)"><g clip-path="url(#848e44929f)"><g clip-path="url(#322c3239b7)"><g clip-path="url(#196eda5a95)"><g clip-path="url(#091a20851f)"><g clip-path="url(#d42a69f7d7)"><g clip-path="url(#5bc559b1af)"><g clip-path="url(#2a248d0e35)"><path fill="#1df67a" d="M 257.589844 368.210938 L 117.523438 307.273438 C 108.953125 303.546875 105.03125 293.578125 108.757812 285.007812 L 202.070312 70.523438 C 205.796875 61.957031 215.765625 58.03125 224.335938 61.757812 L 364.402344 122.695312 C 372.96875 126.421875 376.894531 136.390625 373.167969 144.960938 L 279.855469 359.445312 C 276.125 368.015625 266.15625 371.9375 257.589844 368.210938 " fill-opacity="1" fill-rule="nonzero"/></g></g></g></g></g></g></g></g><g clip-path="url(#a14786e334)"><g clip-path="url(#17f1d2f59d)"><g clip-path="url(#38965a274f)"><g clip-path="url(#6506841542)"><g clip-path="url(#1f3dc6b5b1)"><g clip-path="url(#1e2f863e98)"><path stroke-linecap="butt" transform="matrix(0.687734, 0.299201, -0.299201, 0.687734, 208.747666, 54.977706)" fill="none" stroke-linejoin="miter" d="M 0.00135476 27.999568 L 0.000960373 328.982389 C -0.000708591 344.449435 12.535229 356.983819 28.002273 356.985488 L 220.999626 356.987009 C 236.464591 356.983902 248.998972 344.447961 249.002719 328.985691 L 249.001036 27.998094 C 249.000006 12.537902 236.461991 -0.00125715 221.001801 -0.00022786 L 27.999672 0.000328685 C 12.532629 -0.00134018 -0.00175221 12.5346 0.00135476 27.999568 Z M 0.00135476 27.999568 " stroke="#000000" stroke-width="20" stroke-opacity="1" stroke-miterlimit="4"/></g></g></g></g></g></g><g clip-path="url(#4e553c043f)"><path fill="#1a1a1a" d="M 332.285156 138.1875 L 329.902344 133.496094 C 329.6875 133.074219 329.402344 132.703125 329.054688 132.382812 L 323.875 127.722656 C 322.082031 126.109375 320.089844 124.800781 317.894531 123.800781 C 315.699219 122.800781 313.402344 122.148438 311.007812 121.851562 L 310.824219 121.851562 L 310.359375 121.820312 L 306.679688 121.820312 C 306.042969 121.820312 305.445312 121.675781 304.878906 121.386719 L 303.183594 120.503906 C 299.355469 118.496094 295.285156 117.492188 290.960938 117.496094 L 287.515625 117.496094 C 285.699219 117.5 283.898438 117.6875 282.121094 118.058594 L 270.132812 120.554688 C 269.925781 120.601562 269.714844 120.628906 269.5 120.636719 L 257.78125 121.105469 L 244.496094 121.453125 C 244.179688 121.46875 243.871094 121.441406 243.5625 121.371094 L 234.523438 119.421875 L 238.167969 118.972656 C 240.765625 118.660156 242.296875 115.945312 241.199219 113.617188 L 239.714844 110.476562 C 239.429688 109.855469 239.003906 109.351562 238.445312 108.964844 C 237.886719 108.574219 237.265625 108.351562 236.585938 108.296875 L 236.335938 108.261719 L 240.53125 101.875 L 244.34375 104.304688 L 245.578125 102.421875 C 245.773438 102.125 245.902344 101.796875 245.96875 101.445312 C 246.03125 101.09375 246.027344 100.742188 245.949219 100.390625 C 245.871094 100.039062 245.730469 99.71875 245.523438 99.425781 C 245.320312 99.132812 245.066406 98.890625 244.761719 98.699219 L 241.613281 96.703125 L 265.957031 59.476562 C 266.511719 59.601562 267.054688 59.5625 267.585938 59.347656 C 268.117188 59.132812 268.539062 58.789062 268.851562 58.3125 L 270.085938 56.429688 L 257.332031 48.296875 L 256.097656 50.175781 C 255.789062 50.652344 255.648438 51.175781 255.667969 51.742188 C 255.691406 52.308594 255.871094 52.820312 256.214844 53.269531 L 231.875 90.480469 L 228.726562 88.46875 C 228.425781 88.273438 228.09375 88.140625 227.738281 88.078125 C 227.382812 88.011719 227.027344 88.015625 226.675781 88.089844 C 226.320312 88.167969 225.996094 88.304688 225.695312 88.507812 C 225.398438 88.710938 225.148438 88.964844 224.949219 89.265625 L 223.734375 91.144531 L 227.546875 93.574219 L 218.171875 107.914062 L 214.941406 108.792969 C 214.84375 106.882812 214.675781 104.984375 214.394531 103.089844 C 214.375 102.992188 214.363281 102.890625 214.359375 102.789062 C 214.128906 101.359375 213.859375 99.929688 213.511719 98.515625 L 213.511719 98.480469 L 208.699219 82.246094 L 207 88.003906 L 206.902344 88.367188 L 206.835938 87.984375 C 206.453125 85.722656 205.585938 83.496094 204.039062 81.796875 C 202.488281 80.101562 200.457031 78.871094 198.261719 78.105469 C 193.867188 76.625 189.121094 76.324219 184.476562 76.074219 C 179.832031 75.824219 174.9375 76.476562 171.375 79.453125 C 167.808594 82.429688 166.410156 87.136719 165.878906 91.628906 L 165.664062 93.390625 L 165.261719 91.660156 L 163.214844 82.53125 L 161.734375 87.703125 L 161.667969 87.984375 L 161.632812 87.984375 L 159.285156 96.285156 L 159.285156 96.367188 C 157.789062 102.140625 156.65625 108.046875 156.707031 114 C 156.753906 119.957031 158.152344 125.792969 160.585938 131.25 C 163.015625 136.707031 165.863281 142.046875 170.023438 146.355469 C 171.550781 147.957031 173.242188 149.359375 175.101562 150.5625 C 172.574219 149.183594 170.304688 147.464844 168.292969 145.40625 C 163.996094 141.046875 161 135.660156 158.585938 130.152344 C 156.171875 124.648438 154.492188 118.660156 154.523438 112.570312 C 154.507812 109.308594 154.875 106.082031 155.421875 102.890625 L 151.894531 102.109375 L 150.460938 101.707031 L 145.152344 93.574219 L 148.964844 91.144531 L 147.75 89.265625 C 147.550781 88.964844 147.300781 88.710938 147 88.507812 C 146.703125 88.304688 146.375 88.167969 146.023438 88.089844 C 145.667969 88.015625 145.316406 88.011719 144.957031 88.078125 C 144.601562 88.140625 144.273438 88.273438 143.96875 88.46875 L 140.824219 90.480469 L 116.480469 53.269531 C 116.824219 52.820312 117.007812 52.308594 117.03125 51.742188 C 117.050781 51.175781 116.90625 50.652344 116.597656 50.175781 L 115.367188 48.296875 L 102.613281 56.429688 L 103.828125 58.3125 C 104.144531 58.789062 104.570312 59.136719 105.101562 59.347656 C 105.636719 59.5625 106.183594 59.605469 106.742188 59.476562 L 130.683594 96.085938 L 123.40625 94.007812 C 123.25 93.964844 123.089844 93.929688 122.925781 93.90625 L 69.433594 85.824219 C 69.238281 85.789062 69.046875 85.773438 68.851562 85.773438 L 55.429688 85.773438 C 54.1875 85.777344 53.011719 86.058594 51.902344 86.621094 L 41.679688 91.8125 C 41.054688 92.128906 40.480469 92.527344 39.964844 93 C 39.449219 93.476562 39.007812 94.011719 38.636719 94.609375 C 38.269531 95.207031 37.988281 95.84375 37.792969 96.515625 C 37.601562 97.191406 37.503906 97.878906 37.5 98.582031 L 37.5 102.324219 C 37.503906 103.335938 37.699219 104.3125 38.09375 105.246094 C 38.484375 106.179688 39.042969 107 39.765625 107.714844 L 43.609375 111.507812 C 43.953125 111.84375 44.328125 112.148438 44.730469 112.417969 C 45.128906 112.6875 45.550781 112.914062 45.996094 113.105469 C 46.441406 113.296875 46.898438 113.445312 47.367188 113.550781 C 47.839844 113.65625 48.316406 113.714844 48.800781 113.734375 C 49.28125 113.75 49.761719 113.722656 50.242188 113.648438 C 50.71875 113.578125 51.183594 113.460938 51.640625 113.300781 C 52.097656 113.144531 52.535156 112.941406 52.953125 112.703125 C 53.371094 112.460938 53.765625 112.183594 54.132812 111.871094 L 60.675781 106.28125 C 61.515625 105.566406 62.464844 105.050781 63.523438 104.738281 C 64.582031 104.425781 65.65625 104.34375 66.753906 104.488281 L 70.597656 105.003906 L 76.160156 105.632812 C 77.964844 105.851562 79.679688 106.371094 81.304688 107.199219 L 87.796875 110.542969 C 89.96875 111.644531 92.269531 112.199219 94.707031 112.203125 L 97.46875 112.203125 C 99.015625 112.203125 100.527344 112.433594 102.007812 112.894531 C 103.484375 113.359375 104.855469 114.03125 106.125 114.914062 L 117.097656 122.601562 C 117.253906 122.71875 117.417969 122.820312 117.597656 122.898438 L 122.308594 125.230469 C 122.882812 125.511719 123.355469 125.910156 123.726562 126.429688 C 124.097656 126.949219 124.324219 127.523438 124.40625 128.15625 L 127.488281 152.972656 C 127.535156 153.339844 127.636719 153.6875 127.785156 154.023438 L 137.058594 175.097656 C 137.214844 175.445312 137.421875 175.761719 137.675781 176.046875 L 145.132812 184.644531 C 145.75 185.351562 146.054688 186.171875 146.050781 187.105469 L 146.050781 204.988281 C 146.050781 205.589844 146.191406 206.152344 146.464844 206.683594 L 149.613281 212.921875 C 150.761719 215.167969 149.398438 217.878906 146.882812 218.347656 L 136.558594 220.257812 L 136.078125 220.375 L 103.113281 230.921875 C 102.210938 231.210938 101.351562 231.59375 100.53125 232.070312 L 93.921875 235.996094 C 92.535156 236.808594 91.355469 237.855469 90.378906 239.136719 C 89.402344 240.414062 88.703125 241.828125 88.277344 243.378906 L 85.347656 254.160156 C 84.984375 255.484375 84.847656 256.832031 84.941406 258.207031 C 85.035156 259.578125 85.355469 260.894531 85.898438 262.160156 C 86.613281 263.824219 87.640625 265.265625 88.984375 266.480469 C 90.328125 267.699219 91.863281 268.582031 93.589844 269.128906 L 117.699219 276.832031 C 120.050781 277.582031 122.421875 277.636719 124.804688 276.996094 L 146.21875 271.308594 C 146.433594 271.253906 146.644531 271.183594 146.847656 271.09375 L 152.59375 268.414062 C 153.273438 268.101562 153.984375 267.992188 154.726562 268.089844 C 155.46875 268.183594 156.128906 268.46875 156.707031 268.945312 L 176.234375 285.179688 C 178.75 287.261719 182.5625 285.515625 182.5625 282.285156 L 182.5625 276.25 C 182.5625 275.785156 182.480469 275.335938 182.3125 274.902344 L 179.648438 268.015625 C 179.367188 267.269531 178.894531 266.675781 178.234375 266.234375 L 168.578125 259.664062 C 168.429688 259.574219 168.324219 259.445312 168.265625 259.285156 C 168.203125 259.121094 168.199219 258.957031 168.25 258.792969 C 168.300781 258.625 168.394531 258.492188 168.539062 258.390625 C 168.679688 258.292969 168.835938 258.246094 169.007812 258.25 L 195.199219 258.25 C 196.1875 258.246094 197.046875 258.578125 197.777344 259.25 C 198.402344 259.800781 198.925781 260.4375 199.347656 261.15625 C 199.773438 261.875 200.078125 262.636719 200.261719 263.449219 C 200.449219 264.265625 200.503906 265.085938 200.433594 265.914062 C 200.363281 266.746094 200.164062 267.546875 199.84375 268.3125 L 199.742188 268.5625 C 199 270.335938 198.882812 272.148438 199.394531 274.003906 L 201.742188 282.636719 C 201.941406 283.359375 202.042969 284.097656 202.039062 284.847656 L 202.039062 316.386719 L 202.355469 321.675781 C 202.355469 324.570312 205.503906 326.398438 208.066406 325.003906 L 218.871094 319.113281 C 219.480469 318.78125 219.964844 318.320312 220.320312 317.722656 C 220.675781 317.125 220.851562 316.480469 220.855469 315.789062 L 220.539062 310.082031 C 220.539062 309.804688 220.503906 309.535156 220.4375 309.265625 L 216.410156 291.085938 C 216.242188 290.335938 216.296875 289.605469 216.574219 288.890625 L 219.039062 282.6875 C 219.136719 282.441406 219.257812 282.210938 219.402344 281.992188 C 219.546875 281.773438 219.710938 281.574219 219.898438 281.386719 C 220.085938 281.203125 220.285156 281.039062 220.507812 280.894531 C 220.726562 280.753906 220.957031 280.632812 221.199219 280.535156 C 221.445312 280.4375 221.695312 280.367188 221.953125 280.324219 C 222.210938 280.277344 222.472656 280.257812 222.734375 280.265625 C 222.996094 280.273438 223.253906 280.308594 223.511719 280.367188 C 223.765625 280.429688 224.011719 280.511719 224.25 280.625 L 226.046875 281.453125 C 226.609375 281.714844 227.203125 281.832031 227.820312 281.808594 C 228.4375 281.785156 229.019531 281.621094 229.5625 281.320312 L 238.433594 276.363281 C 238.835938 276.144531 239.226562 275.898438 239.601562 275.632812 L 251.9375 267.148438 C 254.035156 265.710938 255.644531 263.847656 256.765625 261.5625 L 262.074219 250.765625 C 262.292969 250.316406 262.53125 249.875 262.792969 249.453125 L 271.03125 236.292969 C 272.09375 234.605469 272.773438 232.777344 273.0625 230.804688 L 273.980469 224.78125 C 274.09375 224.039062 274.144531 223.289062 274.140625 222.535156 C 274.132812 221.78125 274.070312 221.03125 273.949219 220.285156 C 273.824219 219.542969 273.644531 218.8125 273.410156 218.097656 C 273.171875 217.382812 272.882812 216.6875 272.535156 216.015625 C 272.191406 215.347656 271.796875 214.707031 271.351562 214.097656 C 270.90625 213.488281 270.414062 212.917969 269.878906 212.386719 C 269.347656 211.855469 268.773438 211.367188 268.164062 210.925781 C 267.550781 210.480469 266.910156 210.089844 266.238281 209.746094 C 264.980469 209.09375 263.652344 208.632812 262.257812 208.367188 L 243.078125 204.65625 C 242.332031 204.523438 241.574219 204.441406 240.816406 204.40625 L 221.453125 203.675781 C 218.988281 203.574219 217.242188 201.246094 217.875 198.902344 L 218.507812 196.554688 C 218.558594 196.367188 218.625 196.183594 218.707031 196.007812 L 220.71875 191.464844 C 221.566406 189.550781 222.21875 187.570312 222.667969 185.527344 L 224.25 178.390625 C 224.371094 177.824219 224.609375 177.316406 224.964844 176.859375 L 235.636719 163.386719 C 236.277344 162.574219 236.539062 161.652344 236.421875 160.625 L 236.105469 157.847656 L 225.882812 155.917969 L 247.140625 154.554688 C 247.898438 154.503906 248.582031 154.253906 249.191406 153.804688 L 253.601562 150.546875 C 253.945312 150.289062 254.324219 150.09375 254.734375 149.964844 L 278.207031 142.542969 L 278.691406 142.363281 L 289.28125 137.355469 C 289.53125 137.242188 289.792969 137.152344 290.0625 137.089844 L 302.484375 134.226562 C 303.046875 134.101562 303.609375 134.097656 304.175781 134.222656 C 304.738281 134.34375 305.25 134.578125 305.710938 134.925781 L 308.542969 137.105469 L 308.742188 137.273438 L 320.230469 147.351562 C 320.71875 147.777344 321.277344 148.066406 321.910156 148.210938 C 322.539062 148.355469 323.167969 148.339844 323.792969 148.167969 L 326.074219 147.550781 C 326.785156 147.371094 327.390625 147.011719 327.890625 146.46875 L 331.652344 142.476562 C 331.917969 142.195312 332.136719 141.882812 332.304688 141.53125 C 332.476562 141.183594 332.589844 140.816406 332.644531 140.433594 C 332.703125 140.046875 332.699219 139.664062 332.636719 139.28125 C 332.578125 138.898438 332.457031 138.535156 332.285156 138.1875 Z M 112.769531 58.128906 L 118.480469 59.34375 L 117.246094 64.996094 L 111.539062 63.78125 Z M 117.8125 65.863281 L 123.542969 67.078125 L 122.308594 72.714844 L 116.582031 71.5 Z M 122.875 73.582031 L 128.585938 74.792969 L 127.355469 80.449219 L 121.644531 79.234375 Z M 126.6875 86.953125 L 127.917969 81.316406 L 133.648438 82.53125 L 132.414062 88.167969 Z M 184.925781 123.964844 C 183.28125 124.007812 181.664062 124.21875 180.0625 124.597656 C 177.050781 125.34375 173.921875 126.128906 170.839844 125.746094 C 169.09375 125.527344 167.742188 125.046875 166.710938 124.246094 C 165.679688 123.449219 164.746094 122.300781 164.082031 120.804688 C 162.949219 118.160156 162.632812 115.296875 162.515625 112.953125 L 162.816406 112.953125 L 174.421875 112.871094 L 186.023438 112.871094 C 193.082031 112.871094 200.140625 112.953125 207.183594 113.054688 C 207.058594 114.933594 206.722656 116.773438 206.167969 118.574219 C 205.371094 120.988281 204.1875 122.882812 202.621094 124.214844 C 201.789062 124.933594 200.859375 125.488281 199.828125 125.875 C 198.796875 126.257812 197.730469 126.453125 196.628906 126.460938 C 194.53125 126.460938 192.234375 125.945312 189.820312 124.847656 C 189.804688 124.847656 189.804688 124.847656 189.804688 124.828125 C 188.488281 124.214844 186.941406 123.949219 184.925781 123.964844 Z M 171.972656 127.90625 C 170.375 127.757812 168.742188 127.339844 167.410156 126.375 C 167.195312 126.226562 167.011719 126.042969 166.8125 125.878906 C 167.894531 126.441406 169.175781 126.792969 170.707031 126.941406 C 173.988281 127.242188 177.183594 126.425781 180.332031 125.628906 C 181.84375 125.246094 183.382812 125.03125 184.941406 124.980469 C 186.808594 124.929688 188.207031 125.164062 189.386719 125.695312 L 189.421875 125.644531 L 189.421875 125.695312 L 189.535156 125.746094 C 190.070312 125.992188 190.621094 126.226562 191.183594 126.425781 L 191.683594 126.59375 L 191.917969 126.675781 L 193.035156 127.007812 L 193.449219 127.09375 L 193.648438 127.125 C 194.0625 127.226562 194.476562 127.304688 194.898438 127.359375 L 195.398438 127.359375 C 195.75 127.410156 196.105469 127.4375 196.464844 127.441406 L 196.730469 127.441406 C 198.929688 127.417969 200.914062 126.757812 202.691406 125.460938 L 202.921875 125.3125 C 203.078125 125.210938 203.230469 125.101562 203.371094 124.980469 C 205.121094 123.53125 206.503906 121.4375 207.402344 118.925781 C 208.015625 117.179688 208.417969 115.230469 208.648438 113.003906 L 209.515625 113.003906 L 209.515625 113.253906 C 209.332031 115.597656 208.964844 117.960938 208.167969 120.1875 C 207.367188 122.417969 206.121094 124.515625 204.289062 126.042969 C 204.089844 126.210938 203.855469 126.34375 203.636719 126.492188 C 202.609375 127.242188 201.476562 127.769531 200.238281 128.074219 C 199.003906 128.378906 197.757812 128.4375 196.496094 128.257812 L 196.195312 128.257812 C 195.796875 128.207031 195.398438 128.125 194.996094 128.039062 L 194.382812 127.90625 C 194.03125 127.824219 193.664062 127.707031 193.316406 127.589844 L 192.601562 127.359375 C 192 127.140625 191.433594 126.910156 190.867188 126.644531 L 190.851562 126.644531 C 189.386719 125.976562 187.753906 125.828125 186.191406 125.878906 C 184.589844 125.925781 183.015625 126.144531 181.460938 126.542969 C 178.367188 127.390625 175.203125 128.207031 171.972656 127.90625 Z M 259.929688 58.128906 L 261.160156 63.78125 L 255.449219 64.996094 L 254.21875 59.34375 Z M 254.882812 65.863281 L 256.117188 71.5 L 250.386719 72.714844 L 249.15625 67.078125 Z M 249.824219 73.582031 L 251.054688 79.234375 L 245.34375 80.449219 L 244.113281 74.792969 Z M 244.761719 81.316406 L 245.992188 86.953125 L 240.28125 88.167969 L 239.050781 82.53125 Z M 234.339844 97.917969 L 239.917969 101.460938 L 235.519531 108.179688 L 228.078125 107.496094 Z M 234.339844 97.917969 " fill-opacity="1" fill-rule="nonzero"/></g></svg>