<svg xmlns="http://www.w3.org/2000/svg" xmlns:xlink="http://www.w3.org/1999/xlink" width="500" zoomAndPan="magnify" viewBox="0 0 375 374.999991" height="500" preserveAspectRatio="xMidYMid meet" version="1.0"><defs><g/><clipPath id="e4a418daf4"><path d="M 55 140 L 78 140 L 78 157 L 55 157 Z M 55 140 " clip-rule="nonzero"/></clipPath><clipPath id="1abbce2497"><path d="M 77.414062 140.777344 L 62.671875 161.125 L 55.035156 155.589844 L 69.777344 135.246094 Z M 77.414062 140.777344 " clip-rule="nonzero"/></clipPath><clipPath id="e17b989e61"><path d="M 66.371094 156.019531 L 77.414062 140.777344 L 66.097656 140.324219 L 55.050781 155.566406 Z M 66.371094 156.019531 " clip-rule="nonzero"/></clipPath><clipPath id="b9df42de8c"><path d="M 57 153 L 83 153 L 83 166 L 57 166 Z M 57 153 " clip-rule="nonzero"/></clipPath><clipPath id="75dfcabcf8"><path d="M 82.082031 165.023438 L 57.039062 163.007812 L 57.792969 153.605469 L 82.839844 155.621094 Z M 82.082031 165.023438 " clip-rule="nonzero"/></clipPath><clipPath id="928416abff"><path d="M 63.320312 163.511719 L 82.082031 165.023438 L 76.585938 155.117188 L 57.824219 153.605469 Z M 63.320312 163.511719 " clip-rule="nonzero"/></clipPath><clipPath id="8681fe3c83"><path d="M 9.882812 148.171875 L 71.847656 148.171875 L 71.847656 202.496094 L 9.882812 202.496094 Z M 9.882812 148.171875 " clip-rule="nonzero"/></clipPath><clipPath id="47fde44fc9"><path d="M 40.820312 148.171875 C 23.734375 148.171875 9.882812 160.332031 9.882812 175.335938 C 9.882812 190.335938 23.734375 202.496094 40.820312 202.496094 C 57.90625 202.496094 71.757812 190.335938 71.757812 175.335938 C 71.757812 160.332031 57.90625 148.171875 40.820312 148.171875 Z M 40.820312 148.171875 " clip-rule="nonzero"/></clipPath><clipPath id="9859a4c437"><path d="M 16.953125 167.5 L 64.738281 167.5 L 64.738281 183.449219 L 16.953125 183.449219 Z M 16.953125 167.5 " clip-rule="nonzero"/></clipPath><clipPath id="7a50eee43b"><path d="M 59.402344 167.5 C 62.320312 167.5 64.6875 171.070312 64.6875 175.476562 C 64.6875 179.878906 62.320312 183.449219 59.402344 183.449219 L 22.238281 183.449219 C 19.320312 183.449219 16.953125 179.878906 16.953125 175.476562 C 16.953125 171.070312 19.320312 167.5 22.238281 167.5 Z M 59.402344 167.5 " clip-rule="nonzero"/></clipPath><clipPath id="7d7add3d8f"><path d="M 22 167 L 40 167 L 40 184 L 22 184 Z M 22 167 " clip-rule="nonzero"/></clipPath><clipPath id="584419fbad"><path d="M 22.957031 175.632812 L 31.5 167.089844 L 39.433594 175.023438 L 30.890625 183.566406 Z M 22.957031 175.632812 " clip-rule="nonzero"/></clipPath><clipPath id="635facc3ae"><path d="M -1.140625 166.515625 L 43.40625 121.96875 L 81.605469 160.167969 L 37.058594 204.714844 Z M -1.140625 166.515625 " clip-rule="nonzero"/></clipPath><clipPath id="1381bc4d5d"><path d="M 26 170 L 36 170 L 36 181 L 26 181 Z M 26 170 " clip-rule="nonzero"/></clipPath><clipPath id="7b8eb9ca69"><path d="M 22.957031 175.632812 L 31.5 167.089844 L 39.433594 175.023438 L 30.890625 183.566406 Z M 22.957031 175.632812 " clip-rule="nonzero"/></clipPath><clipPath id="339b14cc41"><path d="M -1.140625 166.515625 L 43.40625 121.96875 L 81.605469 160.167969 L 37.058594 204.714844 Z M -1.140625 166.515625 " clip-rule="nonzero"/></clipPath><clipPath id="e9c78c67a6"><path d="M 47.046875 173.808594 L 55.058594 173.808594 L 55.058594 176.859375 L 47.046875 176.859375 Z M 47.046875 173.808594 " clip-rule="nonzero"/></clipPath><clipPath id="c32f4f247d"><path d="M 53.054688 173.808594 C 54.160156 173.808594 55.054688 174.492188 55.054688 175.335938 C 55.054688 176.175781 54.160156 176.859375 53.054688 176.859375 L 49.050781 176.859375 C 47.945312 176.859375 47.046875 176.175781 47.046875 175.335938 C 47.046875 174.492188 47.945312 173.808594 49.050781 173.808594 Z M 53.054688 173.808594 " clip-rule="nonzero"/></clipPath></defs><g fill="#004aad" fill-opacity="1"><g transform="translate(87.805926, 184.775481)"><g><path d="M 12.015625 0.203125 C 10.078125 0.203125 8.335938 -0.148438 6.796875 -0.859375 C 5.253906 -1.578125 4.03125 -2.628906 3.125 -4.015625 C 2.21875 -5.410156 1.765625 -7.097656 1.765625 -9.078125 C 1.765625 -10.460938 2.003906 -11.960938 2.484375 -13.578125 C 3.546875 -17.023438 5.144531 -19.515625 7.28125 -21.046875 C 9.425781 -22.578125 11.71875 -23.34375 14.15625 -23.34375 C 15.46875 -23.34375 16.628906 -23.144531 17.640625 -22.75 C 18.660156 -22.363281 19.59375 -21.800781 20.4375 -21.0625 L 21.375 -21.796875 C 22 -22.273438 22.519531 -22.601562 22.9375 -22.78125 C 23.363281 -22.96875 23.84375 -23.0625 24.375 -23.0625 C 24.957031 -23.0625 25.421875 -22.9375 25.765625 -22.6875 C 26.109375 -22.4375 26.28125 -22.066406 26.28125 -21.578125 C 26.28125 -21.328125 26.234375 -21.078125 26.140625 -20.828125 L 24.203125 -15.4375 C 23.992188 -14.8125 23.742188 -14.375 23.453125 -14.125 C 23.171875 -13.875 22.742188 -13.75 22.171875 -13.75 C 21.566406 -13.75 21.070312 -13.957031 20.6875 -14.375 C 20.3125 -14.800781 19.882812 -15.535156 19.40625 -16.578125 C 18.851562 -17.660156 18.40625 -18.375 18.0625 -18.71875 C 17.71875 -19.0625 17.210938 -19.234375 16.546875 -19.234375 C 15.597656 -19.234375 14.6875 -18.648438 13.8125 -17.484375 C 12.9375 -16.328125 12.144531 -14.585938 11.4375 -12.265625 C 10.832031 -10.304688 10.53125 -8.671875 10.53125 -7.359375 C 10.53125 -6.203125 10.75 -5.34375 11.1875 -4.78125 C 11.625 -4.21875 12.210938 -3.9375 12.953125 -3.9375 C 14.035156 -3.9375 14.925781 -4.175781 15.625 -4.65625 C 16.320312 -5.144531 17.039062 -5.800781 17.78125 -6.625 C 18.238281 -7.132812 18.613281 -7.507812 18.90625 -7.75 C 19.195312 -7.988281 19.503906 -8.109375 19.828125 -8.109375 C 20.234375 -8.109375 20.664062 -7.898438 21.125 -7.484375 C 21.59375 -7.078125 21.816406 -6.664062 21.796875 -6.25 C 21.816406 -5.738281 21.40625 -4.953125 20.5625 -3.890625 C 19.71875 -2.835938 18.550781 -1.890625 17.0625 -1.046875 C 15.582031 -0.210938 13.898438 0.203125 12.015625 0.203125 Z M 12.015625 0.203125 "/></g></g></g><g fill="#004aad" fill-opacity="1"><g transform="translate(111.704301, 184.775481)"><g><path d="M 12.328125 -18.265625 C 14.972656 -18.265625 17.085938 -17.773438 18.671875 -16.796875 C 20.265625 -15.816406 21.0625 -14.328125 21.0625 -12.328125 C 21.0625 -11.566406 20.925781 -10.703125 20.65625 -9.734375 L 19.234375 -4.96875 C 19.210938 -4.875 19.203125 -4.757812 19.203125 -4.625 C 19.203125 -4.257812 19.347656 -4.078125 19.640625 -4.078125 C 19.921875 -4.078125 20.160156 -4.195312 20.359375 -4.4375 C 20.554688 -4.675781 20.6875 -4.796875 20.75 -4.796875 C 20.863281 -4.796875 20.960938 -4.710938 21.046875 -4.546875 C 21.128906 -4.390625 21.171875 -4.207031 21.171875 -4 C 21.191406 -3.382812 20.953125 -2.753906 20.453125 -2.109375 C 19.960938 -1.460938 19.300781 -0.929688 18.46875 -0.515625 C 17.644531 -0.0976562 16.738281 0.109375 15.75 0.109375 C 14.550781 0.109375 13.523438 -0.109375 12.671875 -0.546875 C 11.816406 -0.984375 11.226562 -1.628906 10.90625 -2.484375 C 10.21875 -1.660156 9.398438 -1.019531 8.453125 -0.5625 C 7.515625 -0.113281 6.503906 0.109375 5.421875 0.109375 C 4.203125 0.109375 3.175781 -0.125 2.34375 -0.59375 C 1.519531 -1.070312 0.90625 -1.6875 0.5 -2.4375 C 0.09375 -3.1875 -0.109375 -3.972656 -0.109375 -4.796875 C -0.109375 -5.171875 -0.0703125 -5.53125 0 -5.875 C 0.363281 -7.457031 1.160156 -8.648438 2.390625 -9.453125 C 3.628906 -10.265625 5.097656 -10.671875 6.796875 -10.671875 C 8.710938 -10.671875 10.59375 -10.367188 12.4375 -9.765625 L 13.296875 -12.046875 C 13.597656 -13.015625 13.75 -13.765625 13.75 -14.296875 C 13.71875 -14.847656 13.53125 -15.257812 13.1875 -15.53125 C 12.84375 -15.8125 12.316406 -15.953125 11.609375 -15.953125 C 11.742188 -15.585938 11.8125 -15.207031 11.8125 -14.8125 C 11.8125 -13.957031 11.488281 -13.21875 10.84375 -12.59375 C 10.195312 -11.976562 9.273438 -11.671875 8.078125 -11.671875 C 6.953125 -11.671875 6.070312 -11.914062 5.4375 -12.40625 C 4.800781 -12.90625 4.484375 -13.523438 4.484375 -14.265625 C 4.484375 -15.410156 5.128906 -16.363281 6.421875 -17.125 C 7.710938 -17.882812 9.679688 -18.265625 12.328125 -18.265625 Z M 10.390625 -7.796875 C 9.742188 -7.796875 9.21875 -7.546875 8.8125 -7.046875 C 8.414062 -6.554688 8.21875 -6.023438 8.21875 -5.453125 C 8.21875 -5.085938 8.300781 -4.789062 8.46875 -4.5625 C 8.644531 -4.332031 8.894531 -4.21875 9.21875 -4.21875 C 9.519531 -4.21875 9.847656 -4.335938 10.203125 -4.578125 C 10.554688 -4.816406 10.816406 -5.175781 10.984375 -5.65625 L 11.703125 -7.703125 C 11.316406 -7.765625 10.878906 -7.796875 10.390625 -7.796875 Z M 10.390625 -7.796875 "/></g></g></g><g fill="#004aad" fill-opacity="1"><g transform="translate(134.290336, 184.775481)"><g><path d="M 16.953125 -18.265625 C 18.242188 -18.265625 19.273438 -17.875 20.046875 -17.09375 C 20.816406 -16.3125 21.203125 -15.34375 21.203125 -14.1875 C 21.203125 -13.75 21.15625 -13.347656 21.0625 -12.984375 C 20.832031 -12.035156 20.394531 -11.304688 19.75 -10.796875 C 19.101562 -10.296875 18.332031 -10.046875 17.4375 -10.046875 C 16.5625 -10.046875 15.898438 -10.253906 15.453125 -10.671875 C 15.003906 -11.085938 14.609375 -11.640625 14.265625 -12.328125 C 14.078125 -12.722656 13.898438 -13.007812 13.734375 -13.1875 C 13.578125 -13.375 13.394531 -13.46875 13.1875 -13.46875 C 12.957031 -13.46875 12.753906 -13.375 12.578125 -13.1875 C 12.410156 -13.007812 12.257812 -12.6875 12.125 -12.21875 L 9.46875 -3.59375 C 9.414062 -3.476562 9.390625 -3.304688 9.390625 -3.078125 C 9.390625 -2.773438 9.472656 -2.523438 9.640625 -2.328125 C 9.816406 -2.128906 10.054688 -1.941406 10.359375 -1.765625 C 10.640625 -1.578125 10.820312 -1.425781 10.90625 -1.3125 C 11 -1.195312 11.035156 -1.046875 11.015625 -0.859375 C 10.972656 -0.566406 10.804688 -0.347656 10.515625 -0.203125 C 10.222656 -0.0664062 9.734375 0 9.046875 0 L 0.203125 0 C -0.390625 0 -0.816406 -0.0976562 -1.078125 -0.296875 C -1.347656 -0.492188 -1.445312 -0.753906 -1.375 -1.078125 C -1.289062 -1.347656 -1.050781 -1.585938 -0.65625 -1.796875 C -0.3125 -1.984375 -0.0234375 -2.203125 0.203125 -2.453125 C 0.429688 -2.703125 0.628906 -3.101562 0.796875 -3.65625 L 3.875 -13.640625 C 3.914062 -13.753906 3.9375 -13.914062 3.9375 -14.125 C 3.9375 -14.375 3.882812 -14.566406 3.78125 -14.703125 C 3.675781 -14.847656 3.507812 -15.023438 3.28125 -15.234375 C 3.050781 -15.410156 2.890625 -15.566406 2.796875 -15.703125 C 2.703125 -15.847656 2.691406 -16.035156 2.765625 -16.265625 C 2.898438 -16.796875 3.625 -17.257812 4.9375 -17.65625 C 6.25 -18.0625 7.617188 -18.265625 9.046875 -18.265625 C 9.992188 -18.265625 10.773438 -18.050781 11.390625 -17.625 C 12.015625 -17.195312 12.421875 -16.59375 12.609375 -15.8125 C 13.710938 -17.445312 15.160156 -18.265625 16.953125 -18.265625 Z M 16.953125 -18.265625 "/></g></g></g><g fill="#004aad" fill-opacity="1"><g transform="translate(154.286231, 184.775481)"><g><path d="M 19.296875 -4.96875 C 19.253906 -4.789062 19.234375 -4.664062 19.234375 -4.59375 C 19.234375 -4.425781 19.28125 -4.296875 19.375 -4.203125 C 19.46875 -4.117188 19.582031 -4.078125 19.71875 -4.078125 C 19.988281 -4.078125 20.222656 -4.195312 20.421875 -4.4375 C 20.617188 -4.675781 20.753906 -4.796875 20.828125 -4.796875 C 20.941406 -4.796875 21.03125 -4.710938 21.09375 -4.546875 C 21.164062 -4.390625 21.203125 -4.207031 21.203125 -4 C 21.222656 -3.382812 20.984375 -2.753906 20.484375 -2.109375 C 19.992188 -1.460938 19.332031 -0.929688 18.5 -0.515625 C 17.675781 -0.0976562 16.78125 0.109375 15.8125 0.109375 C 14.664062 0.109375 13.664062 -0.109375 12.8125 -0.546875 C 11.957031 -0.984375 11.367188 -1.5625 11.046875 -2.28125 C 10.429688 -1.476562 9.71875 -0.878906 8.90625 -0.484375 C 8.101562 -0.0859375 7.253906 0.109375 6.359375 0.109375 C 5.296875 0.109375 4.304688 -0.15625 3.390625 -0.6875 C 2.484375 -1.21875 1.757812 -1.972656 1.21875 -2.953125 C 0.6875 -3.929688 0.421875 -5.039062 0.421875 -6.28125 C 0.421875 -8.375 0.816406 -10.347656 1.609375 -12.203125 C 2.398438 -14.054688 3.507812 -15.550781 4.9375 -16.6875 C 6.363281 -17.832031 7.988281 -18.40625 9.8125 -18.40625 C 10.800781 -18.40625 11.644531 -18.289062 12.34375 -18.0625 C 13.039062 -17.832031 13.679688 -17.488281 14.265625 -17.03125 L 15.4375 -20.890625 C 15.507812 -21.097656 15.546875 -21.269531 15.546875 -21.40625 C 15.546875 -21.664062 15.476562 -21.875 15.34375 -22.03125 C 15.21875 -22.1875 15.050781 -22.347656 14.84375 -22.515625 C 14.613281 -22.703125 14.445312 -22.863281 14.34375 -23 C 14.238281 -23.132812 14.222656 -23.316406 14.296875 -23.546875 C 14.429688 -24.078125 15.15625 -24.535156 16.46875 -24.921875 C 17.78125 -25.316406 19.148438 -25.515625 20.578125 -25.515625 C 21.910156 -25.515625 22.894531 -25.257812 23.53125 -24.75 C 24.164062 -24.25 24.484375 -23.5625 24.484375 -22.6875 C 24.484375 -22.175781 24.398438 -21.679688 24.234375 -21.203125 Z M 13.53125 -14.671875 C 13.164062 -14.992188 12.765625 -15.15625 12.328125 -15.15625 C 11.660156 -15.15625 11.003906 -14.660156 10.359375 -13.671875 C 9.710938 -12.679688 9.191406 -11.484375 8.796875 -10.078125 C 8.410156 -8.679688 8.226562 -7.414062 8.25 -6.28125 C 8.25 -5.019531 8.664062 -4.390625 9.5 -4.390625 C 9.789062 -4.390625 10.039062 -4.507812 10.25 -4.75 C 10.457031 -4.988281 10.65625 -5.382812 10.84375 -5.9375 Z M 13.53125 -14.671875 "/></g></g></g><g fill="#004aad" fill-opacity="1"><g transform="translate(176.906804, 184.775481)"><g><path d="M 18.609375 -23 C 21.046875 -23 22.925781 -22.46875 24.25 -21.40625 C 25.582031 -20.351562 26.25 -18.953125 26.25 -17.203125 C 26.25 -16.503906 26.144531 -15.773438 25.9375 -15.015625 C 25.289062 -12.710938 24.015625 -11.007812 22.109375 -9.90625 C 20.210938 -8.800781 17.816406 -8.25 14.921875 -8.25 L 11.359375 -8.25 L 10.1875 -4.078125 C 10.144531 -3.941406 10.125 -3.753906 10.125 -3.515625 C 10.125 -3.191406 10.195312 -2.925781 10.34375 -2.71875 C 10.488281 -2.519531 10.710938 -2.28125 11.015625 -2 C 11.265625 -1.769531 11.4375 -1.597656 11.53125 -1.484375 C 11.625 -1.367188 11.671875 -1.234375 11.671875 -1.078125 C 11.671875 -0.679688 11.484375 -0.398438 11.109375 -0.234375 C 10.742188 -0.078125 10.207031 0 9.5 0 L 0.828125 0 C 0.234375 0 -0.210938 -0.109375 -0.515625 -0.328125 C -0.816406 -0.546875 -0.921875 -0.851562 -0.828125 -1.25 C -0.785156 -1.445312 -0.695312 -1.609375 -0.5625 -1.734375 C -0.4375 -1.867188 -0.25 -2.015625 0 -2.171875 C 0.394531 -2.398438 0.707031 -2.640625 0.9375 -2.890625 C 1.164062 -3.148438 1.347656 -3.546875 1.484375 -4.078125 L 5.703125 -18.953125 C 5.785156 -19.253906 5.828125 -19.546875 5.828125 -19.828125 C 5.828125 -20.078125 5.785156 -20.285156 5.703125 -20.453125 C 5.628906 -20.628906 5.523438 -20.832031 5.390625 -21.0625 C 5.179688 -21.363281 5.078125 -21.609375 5.078125 -21.796875 C 5.078125 -21.859375 5.097656 -21.984375 5.140625 -22.171875 C 5.234375 -22.472656 5.4375 -22.6875 5.75 -22.8125 C 6.0625 -22.9375 6.539062 -23 7.1875 -23 Z M 17.71875 -15.640625 C 17.96875 -16.492188 18.09375 -17.242188 18.09375 -17.890625 C 18.09375 -19.222656 17.472656 -19.890625 16.234375 -19.890625 L 14.671875 -19.890625 L 12.21875 -11.359375 L 13.75 -11.359375 C 14.707031 -11.359375 15.492188 -11.660156 16.109375 -12.265625 C 16.722656 -12.878906 17.257812 -14.003906 17.71875 -15.640625 Z M 17.71875 -15.640625 "/></g></g></g><g fill="#004aad" fill-opacity="1"><g transform="translate(200.49437, 184.775481)"><g><path d="M 16.953125 -18.265625 C 18.242188 -18.265625 19.273438 -17.875 20.046875 -17.09375 C 20.816406 -16.3125 21.203125 -15.34375 21.203125 -14.1875 C 21.203125 -13.75 21.15625 -13.347656 21.0625 -12.984375 C 20.832031 -12.035156 20.394531 -11.304688 19.75 -10.796875 C 19.101562 -10.296875 18.332031 -10.046875 17.4375 -10.046875 C 16.5625 -10.046875 15.898438 -10.253906 15.453125 -10.671875 C 15.003906 -11.085938 14.609375 -11.640625 14.265625 -12.328125 C 14.078125 -12.722656 13.898438 -13.007812 13.734375 -13.1875 C 13.578125 -13.375 13.394531 -13.46875 13.1875 -13.46875 C 12.957031 -13.46875 12.753906 -13.375 12.578125 -13.1875 C 12.410156 -13.007812 12.257812 -12.6875 12.125 -12.21875 L 9.46875 -3.59375 C 9.414062 -3.476562 9.390625 -3.304688 9.390625 -3.078125 C 9.390625 -2.773438 9.472656 -2.523438 9.640625 -2.328125 C 9.816406 -2.128906 10.054688 -1.941406 10.359375 -1.765625 C 10.640625 -1.578125 10.820312 -1.425781 10.90625 -1.3125 C 11 -1.195312 11.035156 -1.046875 11.015625 -0.859375 C 10.972656 -0.566406 10.804688 -0.347656 10.515625 -0.203125 C 10.222656 -0.0664062 9.734375 0 9.046875 0 L 0.203125 0 C -0.390625 0 -0.816406 -0.0976562 -1.078125 -0.296875 C -1.347656 -0.492188 -1.445312 -0.753906 -1.375 -1.078125 C -1.289062 -1.347656 -1.050781 -1.585938 -0.65625 -1.796875 C -0.3125 -1.984375 -0.0234375 -2.203125 0.203125 -2.453125 C 0.429688 -2.703125 0.628906 -3.101562 0.796875 -3.65625 L 3.875 -13.640625 C 3.914062 -13.753906 3.9375 -13.914062 3.9375 -14.125 C 3.9375 -14.375 3.882812 -14.566406 3.78125 -14.703125 C 3.675781 -14.847656 3.507812 -15.023438 3.28125 -15.234375 C 3.050781 -15.410156 2.890625 -15.566406 2.796875 -15.703125 C 2.703125 -15.847656 2.691406 -16.035156 2.765625 -16.265625 C 2.898438 -16.796875 3.625 -17.257812 4.9375 -17.65625 C 6.25 -18.0625 7.617188 -18.265625 9.046875 -18.265625 C 9.992188 -18.265625 10.773438 -18.050781 11.390625 -17.625 C 12.015625 -17.195312 12.421875 -16.59375 12.609375 -15.8125 C 13.710938 -17.445312 15.160156 -18.265625 16.953125 -18.265625 Z M 16.953125 -18.265625 "/></g></g></g><g fill="#004aad" fill-opacity="1"><g transform="translate(220.490264, 184.775481)"><g><path d="M 9.09375 -18.265625 C 10.425781 -18.265625 11.398438 -18.007812 12.015625 -17.5 C 12.640625 -17 12.953125 -16.3125 12.953125 -15.4375 C 12.953125 -14.90625 12.875 -14.398438 12.71875 -13.921875 L 9.53125 -3.59375 C 9.46875 -3.3125 9.4375 -3.066406 9.4375 -2.859375 C 9.4375 -2.566406 9.492188 -2.332031 9.609375 -2.15625 C 9.722656 -1.988281 9.882812 -1.820312 10.09375 -1.65625 C 10.25 -1.5 10.359375 -1.367188 10.421875 -1.265625 C 10.492188 -1.160156 10.507812 -1.023438 10.46875 -0.859375 C 10.351562 -0.566406 10.125 -0.347656 9.78125 -0.203125 C 9.4375 -0.0664062 8.90625 0 8.1875 0 L 0.3125 0 C -0.28125 0 -0.710938 -0.0976562 -0.984375 -0.296875 C -1.265625 -0.492188 -1.359375 -0.753906 -1.265625 -1.078125 C -1.179688 -1.347656 -0.941406 -1.585938 -0.546875 -1.796875 C -0.203125 -1.984375 0.0820312 -2.203125 0.3125 -2.453125 C 0.539062 -2.703125 0.738281 -3.101562 0.90625 -3.65625 L 3.90625 -13.640625 C 3.976562 -13.847656 4.015625 -14.019531 4.015625 -14.15625 C 4.015625 -14.40625 3.957031 -14.601562 3.84375 -14.75 C 3.726562 -14.90625 3.554688 -15.066406 3.328125 -15.234375 C 3.085938 -15.410156 2.921875 -15.566406 2.828125 -15.703125 C 2.742188 -15.847656 2.734375 -16.035156 2.796875 -16.265625 C 2.941406 -16.796875 3.671875 -17.257812 4.984375 -17.65625 C 6.296875 -18.0625 7.664062 -18.265625 9.09375 -18.265625 Z M 11.390625 -25.90625 C 12.285156 -25.90625 13.03125 -25.609375 13.625 -25.015625 C 14.226562 -24.429688 14.53125 -23.710938 14.53125 -22.859375 C 14.53125 -22.265625 14.375 -21.675781 14.0625 -21.09375 C 13.757812 -20.519531 13.320312 -20.054688 12.75 -19.703125 C 12.1875 -19.347656 11.5625 -19.171875 10.875 -19.171875 C 10 -19.171875 9.265625 -19.460938 8.671875 -20.046875 C 8.085938 -20.628906 7.785156 -21.359375 7.765625 -22.234375 C 7.765625 -22.804688 7.914062 -23.375 8.21875 -23.9375 C 8.519531 -24.507812 8.945312 -24.976562 9.5 -25.34375 C 10.050781 -25.71875 10.679688 -25.90625 11.390625 -25.90625 Z M 11.390625 -25.90625 "/></g></g></g><g fill="#004aad" fill-opacity="1"><g transform="translate(233.130159, 184.775481)"><g><path d="M 12.53125 -18.4375 C 13.9375 -18.4375 15.164062 -18.234375 16.21875 -17.828125 C 17.28125 -17.429688 18.101562 -16.878906 18.6875 -16.171875 C 19.28125 -15.472656 19.578125 -14.695312 19.578125 -13.84375 C 19.578125 -12.925781 19.257812 -12.164062 18.625 -11.5625 C 18 -10.96875 17.144531 -10.671875 16.0625 -10.671875 C 14.957031 -10.671875 14.09375 -10.953125 13.46875 -11.515625 C 12.84375 -12.078125 12.53125 -12.84375 12.53125 -13.8125 C 12.53125 -14.269531 12.597656 -14.753906 12.734375 -15.265625 C 11.773438 -15.015625 10.921875 -14.515625 10.171875 -13.765625 C 9.421875 -13.015625 8.921875 -12.03125 8.671875 -10.8125 C 8.523438 -10.113281 8.453125 -9.488281 8.453125 -8.9375 C 8.453125 -7.695312 8.796875 -6.753906 9.484375 -6.109375 C 10.179688 -5.460938 11.175781 -5.140625 12.46875 -5.140625 C 13.207031 -5.140625 13.835938 -5.210938 14.359375 -5.359375 C 14.890625 -5.515625 15.429688 -5.71875 15.984375 -5.96875 C 16.441406 -6.195312 16.773438 -6.3125 16.984375 -6.3125 C 17.128906 -6.3125 17.222656 -6.28125 17.265625 -6.21875 C 17.304688 -6.164062 17.328125 -6.050781 17.328125 -5.875 C 17.359375 -5.019531 17.007812 -4.125 16.28125 -3.1875 C 15.550781 -2.257812 14.546875 -1.476562 13.265625 -0.84375 C 11.992188 -0.207031 10.566406 0.109375 8.984375 0.109375 C 7.316406 0.109375 5.84375 -0.195312 4.5625 -0.8125 C 3.289062 -1.425781 2.300781 -2.300781 1.59375 -3.4375 C 0.894531 -4.570312 0.546875 -5.898438 0.546875 -7.421875 C 0.546875 -8.140625 0.640625 -8.9375 0.828125 -9.8125 C 1.453125 -12.664062 2.828125 -14.816406 4.953125 -16.265625 C 7.085938 -17.710938 9.613281 -18.4375 12.53125 -18.4375 Z M 12.53125 -18.4375 "/></g></g></g><g fill="#004aad" fill-opacity="1"><g transform="translate(251.848251, 184.775481)"><g><path d="M 11.703125 -18.4375 C 14.628906 -18.4375 16.75 -17.96875 18.0625 -17.03125 C 19.375 -16.101562 20.03125 -14.914062 20.03125 -13.46875 C 20.03125 -13.03125 19.984375 -12.628906 19.890625 -12.265625 C 19.546875 -10.742188 18.582031 -9.65625 17 -9 C 15.425781 -8.34375 13.570312 -8.015625 11.4375 -8.015625 C 10.351562 -8.015625 9.335938 -8.082031 8.390625 -8.21875 C 8.367188 -7.019531 8.691406 -6.175781 9.359375 -5.6875 C 10.023438 -5.207031 10.957031 -4.96875 12.15625 -4.96875 C 12.707031 -4.96875 13.234375 -5.03125 13.734375 -5.15625 C 14.242188 -5.289062 14.890625 -5.484375 15.671875 -5.734375 C 16.316406 -5.960938 16.753906 -6.078125 16.984375 -6.078125 C 17.242188 -6.078125 17.375 -5.925781 17.375 -5.625 C 17.394531 -4.820312 17.09375 -3.976562 16.46875 -3.09375 C 15.851562 -2.207031 14.929688 -1.453125 13.703125 -0.828125 C 12.484375 -0.203125 11.007812 0.109375 9.28125 0.109375 C 6.726562 0.109375 4.632812 -0.535156 3 -1.828125 C 1.363281 -3.117188 0.546875 -4.992188 0.546875 -7.453125 C 0.546875 -8.148438 0.640625 -8.957031 0.828125 -9.875 C 1.398438 -12.707031 2.660156 -14.84375 4.609375 -16.28125 C 6.554688 -17.71875 8.921875 -18.4375 11.703125 -18.4375 Z M 8.640625 -10.296875 C 8.722656 -10.265625 8.847656 -10.25 9.015625 -10.25 C 9.984375 -10.25 10.71875 -10.695312 11.21875 -11.59375 C 11.726562 -12.5 11.972656 -13.503906 11.953125 -14.609375 C 11.921875 -15.253906 11.734375 -15.578125 11.390625 -15.578125 C 11.140625 -15.578125 10.84375 -15.375 10.5 -14.96875 C 10.15625 -14.5625 9.816406 -13.957031 9.484375 -13.15625 C 9.148438 -12.351562 8.867188 -11.398438 8.640625 -10.296875 Z M 8.640625 -10.296875 "/></g></g></g><g fill="#004aad" fill-opacity="1"><g transform="translate(271.187976, 184.775481)"><g><path d="M 26.90625 -23 C 27.84375 -23 28.3125 -22.695312 28.3125 -22.09375 C 28.3125 -21.9375 28.300781 -21.820312 28.28125 -21.75 C 28.207031 -21.519531 28.101562 -21.34375 27.96875 -21.21875 C 27.832031 -21.09375 27.640625 -20.945312 27.390625 -20.78125 C 27.035156 -20.582031 26.742188 -20.351562 26.515625 -20.09375 C 26.285156 -19.84375 26.09375 -19.453125 25.9375 -18.921875 L 21.65625 -3.59375 C 21.257812 -2.207031 20.765625 -1.238281 20.171875 -0.6875 C 19.585938 -0.132812 18.78125 0.140625 17.75 0.140625 C 16.832031 0.140625 16.066406 -0.128906 15.453125 -0.671875 C 14.835938 -1.210938 14.269531 -2.046875 13.75 -3.171875 L 8.53125 -14.15625 L 5.625 -4.078125 C 5.5625 -3.773438 5.53125 -3.507812 5.53125 -3.28125 C 5.53125 -2.976562 5.578125 -2.726562 5.671875 -2.53125 C 5.773438 -2.34375 5.921875 -2.144531 6.109375 -1.9375 C 6.359375 -1.632812 6.484375 -1.378906 6.484375 -1.171875 C 6.484375 -1.035156 6.472656 -0.929688 6.453125 -0.859375 C 6.359375 -0.535156 6.148438 -0.3125 5.828125 -0.1875 C 5.515625 -0.0625 5.035156 0 4.390625 0 L 0.625 0 C -0.320312 0 -0.796875 -0.296875 -0.796875 -0.890625 C -0.796875 -1.054688 -0.785156 -1.175781 -0.765625 -1.25 C -0.691406 -1.476562 -0.582031 -1.65625 -0.4375 -1.78125 C -0.300781 -1.90625 -0.109375 -2.046875 0.140625 -2.203125 C 0.484375 -2.410156 0.769531 -2.640625 1 -2.890625 C 1.226562 -3.148438 1.425781 -3.546875 1.59375 -4.078125 L 5.96875 -19.578125 L 5.421875 -20.71875 C 5.191406 -21.175781 5.078125 -21.578125 5.078125 -21.921875 C 5.078125 -22.640625 5.535156 -23 6.453125 -23 L 11.5625 -23 C 12.300781 -23 12.859375 -22.832031 13.234375 -22.5 C 13.617188 -22.164062 14.03125 -21.570312 14.46875 -20.71875 L 19.515625 -10.59375 L 21.890625 -18.921875 C 21.960938 -19.242188 22 -19.507812 22 -19.71875 C 22 -20.019531 21.945312 -20.265625 21.84375 -20.453125 C 21.738281 -20.648438 21.59375 -20.851562 21.40625 -21.0625 C 21.15625 -21.363281 21.03125 -21.617188 21.03125 -21.828125 C 21.03125 -21.960938 21.039062 -22.066406 21.0625 -22.140625 C 21.15625 -22.460938 21.363281 -22.6875 21.6875 -22.8125 C 22.007812 -22.9375 22.492188 -23 23.140625 -23 Z M 26.90625 -23 "/></g></g></g><g fill="#004aad" fill-opacity="1"><g transform="translate(296.295087, 184.775481)"><g><path d="M 9.09375 -18.265625 C 10.425781 -18.265625 11.398438 -18.007812 12.015625 -17.5 C 12.640625 -17 12.953125 -16.3125 12.953125 -15.4375 C 12.953125 -14.90625 12.875 -14.398438 12.71875 -13.921875 L 9.53125 -3.59375 C 9.46875 -3.3125 9.4375 -3.066406 9.4375 -2.859375 C 9.4375 -2.566406 9.492188 -2.332031 9.609375 -2.15625 C 9.722656 -1.988281 9.882812 -1.820312 10.09375 -1.65625 C 10.25 -1.5 10.359375 -1.367188 10.421875 -1.265625 C 10.492188 -1.160156 10.507812 -1.023438 10.46875 -0.859375 C 10.351562 -0.566406 10.125 -0.347656 9.78125 -0.203125 C 9.4375 -0.0664062 8.90625 0 8.1875 0 L 0.3125 0 C -0.28125 0 -0.710938 -0.0976562 -0.984375 -0.296875 C -1.265625 -0.492188 -1.359375 -0.753906 -1.265625 -1.078125 C -1.179688 -1.347656 -0.941406 -1.585938 -0.546875 -1.796875 C -0.203125 -1.984375 0.0820312 -2.203125 0.3125 -2.453125 C 0.539062 -2.703125 0.738281 -3.101562 0.90625 -3.65625 L 3.90625 -13.640625 C 3.976562 -13.847656 4.015625 -14.019531 4.015625 -14.15625 C 4.015625 -14.40625 3.957031 -14.601562 3.84375 -14.75 C 3.726562 -14.90625 3.554688 -15.066406 3.328125 -15.234375 C 3.085938 -15.410156 2.921875 -15.566406 2.828125 -15.703125 C 2.742188 -15.847656 2.734375 -16.035156 2.796875 -16.265625 C 2.941406 -16.796875 3.671875 -17.257812 4.984375 -17.65625 C 6.296875 -18.0625 7.664062 -18.265625 9.09375 -18.265625 Z M 11.390625 -25.90625 C 12.285156 -25.90625 13.03125 -25.609375 13.625 -25.015625 C 14.226562 -24.429688 14.53125 -23.710938 14.53125 -22.859375 C 14.53125 -22.265625 14.375 -21.675781 14.0625 -21.09375 C 13.757812 -20.519531 13.320312 -20.054688 12.75 -19.703125 C 12.1875 -19.347656 11.5625 -19.171875 10.875 -19.171875 C 10 -19.171875 9.265625 -19.460938 8.671875 -20.046875 C 8.085938 -20.628906 7.785156 -21.359375 7.765625 -22.234375 C 7.765625 -22.804688 7.914062 -23.375 8.21875 -23.9375 C 8.519531 -24.507812 8.945312 -24.976562 9.5 -25.34375 C 10.050781 -25.71875 10.679688 -25.90625 11.390625 -25.90625 Z M 11.390625 -25.90625 "/></g></g></g><g fill="#004aad" fill-opacity="1"><g transform="translate(308.934972, 184.775481)"><g><path d="M 21.375 -4.765625 C 21.332031 -4.671875 21.3125 -4.53125 21.3125 -4.34375 C 21.3125 -4.1875 21.347656 -4.0625 21.421875 -3.96875 C 21.503906 -3.875 21.613281 -3.828125 21.75 -3.828125 C 22.03125 -3.828125 22.265625 -3.945312 22.453125 -4.1875 C 22.648438 -4.4375 22.785156 -4.5625 22.859375 -4.5625 C 22.972656 -4.5625 23.0625 -4.484375 23.125 -4.328125 C 23.195312 -4.179688 23.234375 -4.003906 23.234375 -3.796875 C 23.265625 -3.128906 23.046875 -2.476562 22.578125 -1.84375 C 22.117188 -1.207031 21.445312 -0.6875 20.5625 -0.28125 C 19.675781 0.113281 18.613281 0.3125 17.375 0.3125 C 15.851562 0.3125 14.640625 -0.0351562 13.734375 -0.734375 C 12.835938 -1.441406 12.378906 -2.382812 12.359375 -3.5625 C 12.359375 -4.40625 12.566406 -5.359375 12.984375 -6.421875 L 14.890625 -11.390625 C 15.003906 -11.691406 15.0625 -11.9375 15.0625 -12.125 C 15.0625 -12.414062 14.960938 -12.648438 14.765625 -12.828125 C 14.566406 -13.003906 14.328125 -13.09375 14.046875 -13.09375 C 13.546875 -13.09375 13.0625 -12.851562 12.59375 -12.375 C 12.132812 -11.90625 11.804688 -11.328125 11.609375 -10.640625 L 9.46875 -3.59375 C 9.375 -3.34375 9.328125 -3.097656 9.328125 -2.859375 C 9.328125 -2.585938 9.382812 -2.363281 9.5 -2.1875 C 9.613281 -2.019531 9.773438 -1.84375 9.984375 -1.65625 C 10.140625 -1.519531 10.25 -1.394531 10.3125 -1.28125 C 10.382812 -1.164062 10.398438 -1.023438 10.359375 -0.859375 C 10.265625 -0.566406 10.046875 -0.347656 9.703125 -0.203125 C 9.359375 -0.0664062 8.816406 0 8.078125 0 L 0.203125 0 C -0.390625 0 -0.816406 -0.0976562 -1.078125 -0.296875 C -1.347656 -0.492188 -1.445312 -0.753906 -1.375 -1.078125 C -1.289062 -1.347656 -1.050781 -1.585938 -0.65625 -1.796875 C -0.3125 -1.984375 -0.0234375 -2.203125 0.203125 -2.453125 C 0.429688 -2.703125 0.628906 -3.101562 0.796875 -3.65625 L 3.875 -13.640625 C 3.914062 -13.753906 3.9375 -13.914062 3.9375 -14.125 C 3.9375 -14.375 3.882812 -14.566406 3.78125 -14.703125 C 3.675781 -14.847656 3.507812 -15.023438 3.28125 -15.234375 C 3.050781 -15.410156 2.890625 -15.566406 2.796875 -15.703125 C 2.703125 -15.847656 2.691406 -16.035156 2.765625 -16.265625 C 2.898438 -16.796875 3.625 -17.257812 4.9375 -17.65625 C 6.25 -18.0625 7.617188 -18.265625 9.046875 -18.265625 C 10.203125 -18.265625 11.113281 -17.945312 11.78125 -17.3125 C 12.445312 -16.6875 12.742188 -15.804688 12.671875 -14.671875 C 13.617188 -16.035156 14.617188 -16.972656 15.671875 -17.484375 C 16.734375 -18.003906 17.882812 -18.265625 19.125 -18.265625 C 20.53125 -18.265625 21.664062 -17.835938 22.53125 -16.984375 C 23.394531 -16.140625 23.828125 -15.035156 23.828125 -13.671875 C 23.828125 -12.960938 23.710938 -12.257812 23.484375 -11.5625 Z M 21.375 -4.765625 "/></g></g></g><g fill="#004aad" fill-opacity="1"><g transform="translate(333.662196, 184.775481)"><g><path d="M 11.390625 -26 C 12.316406 -26 13.085938 -25.691406 13.703125 -25.078125 C 14.328125 -24.472656 14.640625 -23.734375 14.640625 -22.859375 C 14.660156 -22.210938 14.503906 -21.582031 14.171875 -20.96875 C 13.835938 -20.363281 13.375 -19.867188 12.78125 -19.484375 C 12.195312 -19.109375 11.53125 -18.921875 10.78125 -18.921875 C 9.851562 -18.921875 9.082031 -19.238281 8.46875 -19.875 C 7.863281 -20.507812 7.5625 -21.285156 7.5625 -22.203125 C 7.5625 -22.796875 7.722656 -23.382812 8.046875 -23.96875 C 8.367188 -24.5625 8.820312 -25.046875 9.40625 -25.421875 C 10 -25.804688 10.660156 -26 11.390625 -26 Z M 3.140625 -13.640625 C 3.191406 -13.753906 3.21875 -13.914062 3.21875 -14.125 C 3.21875 -14.375 3.164062 -14.566406 3.0625 -14.703125 C 2.957031 -14.847656 2.789062 -15.023438 2.5625 -15.234375 C 2.320312 -15.410156 2.15625 -15.566406 2.0625 -15.703125 C 1.976562 -15.847656 1.96875 -16.035156 2.03125 -16.265625 C 2.175781 -16.796875 2.90625 -17.257812 4.21875 -17.65625 C 5.53125 -18.0625 6.898438 -18.265625 8.328125 -18.265625 C 9.660156 -18.265625 10.632812 -18.007812 11.25 -17.5 C 11.875 -17 12.1875 -16.3125 12.1875 -15.4375 C 12.1875 -14.90625 12.109375 -14.398438 11.953125 -13.921875 L 7.703125 0.375 C 7.015625 2.65625 5.929688 4.253906 4.453125 5.171875 C 2.984375 6.097656 1.003906 6.5625 -1.484375 6.5625 C -2.472656 6.5625 -3.328125 6.429688 -4.046875 6.171875 C -4.773438 5.921875 -5.070312 5.578125 -4.9375 5.140625 C -4.894531 4.984375 -4.789062 4.832031 -4.625 4.6875 C -4.46875 4.550781 -4.226562 4.40625 -3.90625 4.25 C -3.300781 3.925781 -2.796875 3.570312 -2.390625 3.1875 C -1.992188 2.8125 -1.679688 2.253906 -1.453125 1.515625 Z M 3.140625 -13.640625 "/></g></g></g><g fill="#004aad" fill-opacity="1"><g transform="translate(345.231509, 184.775481)"><g><path d="M 12.328125 -18.265625 C 14.972656 -18.265625 17.085938 -17.773438 18.671875 -16.796875 C 20.265625 -15.816406 21.0625 -14.328125 21.0625 -12.328125 C 21.0625 -11.566406 20.925781 -10.703125 20.65625 -9.734375 L 19.234375 -4.96875 C 19.210938 -4.875 19.203125 -4.757812 19.203125 -4.625 C 19.203125 -4.257812 19.347656 -4.078125 19.640625 -4.078125 C 19.921875 -4.078125 20.160156 -4.195312 20.359375 -4.4375 C 20.554688 -4.675781 20.6875 -4.796875 20.75 -4.796875 C 20.863281 -4.796875 20.960938 -4.710938 21.046875 -4.546875 C 21.128906 -4.390625 21.171875 -4.207031 21.171875 -4 C 21.191406 -3.382812 20.953125 -2.753906 20.453125 -2.109375 C 19.960938 -1.460938 19.300781 -0.929688 18.46875 -0.515625 C 17.644531 -0.0976562 16.738281 0.109375 15.75 0.109375 C 14.550781 0.109375 13.523438 -0.109375 12.671875 -0.546875 C 11.816406 -0.984375 11.226562 -1.628906 10.90625 -2.484375 C 10.21875 -1.660156 9.398438 -1.019531 8.453125 -0.5625 C 7.515625 -0.113281 6.503906 0.109375 5.421875 0.109375 C 4.203125 0.109375 3.175781 -0.125 2.34375 -0.59375 C 1.519531 -1.070312 0.90625 -1.6875 0.5 -2.4375 C 0.09375 -3.1875 -0.109375 -3.972656 -0.109375 -4.796875 C -0.109375 -5.171875 -0.0703125 -5.53125 0 -5.875 C 0.363281 -7.457031 1.160156 -8.648438 2.390625 -9.453125 C 3.628906 -10.265625 5.097656 -10.671875 6.796875 -10.671875 C 8.710938 -10.671875 10.59375 -10.367188 12.4375 -9.765625 L 13.296875 -12.046875 C 13.597656 -13.015625 13.75 -13.765625 13.75 -14.296875 C 13.71875 -14.847656 13.53125 -15.257812 13.1875 -15.53125 C 12.84375 -15.8125 12.316406 -15.953125 11.609375 -15.953125 C 11.742188 -15.585938 11.8125 -15.207031 11.8125 -14.8125 C 11.8125 -13.957031 11.488281 -13.21875 10.84375 -12.59375 C 10.195312 -11.976562 9.273438 -11.671875 8.078125 -11.671875 C 6.953125 -11.671875 6.070312 -11.914062 5.4375 -12.40625 C 4.800781 -12.90625 4.484375 -13.523438 4.484375 -14.265625 C 4.484375 -15.410156 5.128906 -16.363281 6.421875 -17.125 C 7.710938 -17.882812 9.679688 -18.265625 12.328125 -18.265625 Z M 10.390625 -7.796875 C 9.742188 -7.796875 9.21875 -7.546875 8.8125 -7.046875 C 8.414062 -6.554688 8.21875 -6.023438 8.21875 -5.453125 C 8.21875 -5.085938 8.300781 -4.789062 8.46875 -4.5625 C 8.644531 -4.332031 8.894531 -4.21875 9.21875 -4.21875 C 9.519531 -4.21875 9.847656 -4.335938 10.203125 -4.578125 C 10.554688 -4.816406 10.816406 -5.175781 10.984375 -5.65625 L 11.703125 -7.703125 C 11.316406 -7.765625 10.878906 -7.796875 10.390625 -7.796875 Z M 10.390625 -7.796875 "/></g></g></g><g clip-path="url(#e4a418daf4)"><g clip-path="url(#1abbce2497)"><g clip-path="url(#e17b989e61)"><path fill="#000000" d="M 77.414062 140.777344 L 62.695312 161.097656 L 55.054688 155.5625 L 69.777344 135.246094 Z M 77.414062 140.777344 " fill-opacity="1" fill-rule="nonzero"/></g></g></g><g clip-path="url(#b9df42de8c)"><g clip-path="url(#75dfcabcf8)"><g clip-path="url(#928416abff)"><path fill="#000000" d="M 82.082031 165.023438 L 57.074219 163.007812 L 57.832031 153.609375 L 82.839844 155.621094 Z M 82.082031 165.023438 " fill-opacity="1" fill-rule="nonzero"/></g></g></g><g clip-path="url(#8681fe3c83)"><g clip-path="url(#47fde44fc9)"><path fill="#000000" d="M 9.882812 148.171875 L 71.847656 148.171875 L 71.847656 202.496094 L 9.882812 202.496094 Z M 9.882812 148.171875 " fill-opacity="1" fill-rule="nonzero"/></g></g><g clip-path="url(#9859a4c437)"><g clip-path="url(#7a50eee43b)"><path fill="#ffffff" d="M 16.953125 167.5 L 64.675781 167.5 L 64.675781 183.449219 L 16.953125 183.449219 Z M 16.953125 167.5 " fill-opacity="1" fill-rule="nonzero"/></g></g><g clip-path="url(#7d7add3d8f)"><g clip-path="url(#584419fbad)"><g clip-path="url(#635facc3ae)"><path fill="#00bf63" d="M 57.570312 159.304688 C 57.570312 164.074219 49.386719 166.992188 43.835938 172.542969 C 38.28125 178.09375 35.367188 186.277344 30.597656 186.277344 C 27.355469 186.277344 21.429688 180.351562 21.429688 177.109375 C 21.429688 167.574219 38.867188 150.136719 48.402344 150.136719 C 51.644531 150.136719 57.570312 156.0625 57.570312 159.304688 Z M 22.445312 151.152344 C 11.699219 161.898438 10.625 178.246094 20.042969 187.664062 C 29.460938 197.082031 45.808594 196.007812 56.554688 185.261719 C 67.300781 174.515625 68.375 158.171875 58.957031 148.75 C 49.539062 139.332031 33.191406 140.410156 22.445312 151.152344 " fill-opacity="1" fill-rule="nonzero"/></g></g></g><g clip-path="url(#1381bc4d5d)"><g clip-path="url(#7b8eb9ca69)"><g clip-path="url(#339b14cc41)"><path fill="#00bf63" d="M 32.523438 174.015625 L 32.523438 172.058594 C 32.523438 171.257812 31.875 170.609375 31.074219 170.609375 C 30.273438 170.609375 29.625 171.257812 29.625 172.058594 L 29.625 174.015625 L 27.667969 174.015625 C 26.867188 174.015625 26.214844 174.667969 26.214844 175.46875 C 26.214844 176.265625 26.867188 176.917969 27.667969 176.917969 L 29.625 176.917969 L 29.625 178.875 C 29.625 179.675781 30.273438 180.324219 31.074219 180.324219 C 31.875 180.324219 32.523438 179.675781 32.523438 178.875 L 32.523438 176.917969 L 34.484375 176.917969 C 35.285156 176.917969 35.933594 176.265625 35.933594 175.464844 C 35.933594 174.667969 35.285156 174.015625 34.484375 174.015625 L 32.523438 174.015625 " fill-opacity="1" fill-rule="nonzero"/></g></g></g><g clip-path="url(#e9c78c67a6)"><g clip-path="url(#c32f4f247d)"><path fill="#ff3131" d="M 47.046875 173.808594 L 55.058594 173.808594 L 55.058594 176.859375 L 47.046875 176.859375 Z M 47.046875 173.808594 " fill-opacity="1" fill-rule="nonzero"/></g></g></svg>